<?xml version="1.0" encoding="utf-8"?>
<!-- Generator: Adobe Illustrator 21.0.0, SVG Export Plug-In . SVG Version: 6.00 Build 0)  -->
<svg version="1.1" id="Layer_1" xmlns="http://www.w3.org/2000/svg" xmlns:xlink="http://www.w3.org/1999/xlink" x="0px" y="0px"
	 viewBox="0 0 1153 1154" style="enable-background:new 0 0 1153 1154;" xml:space="preserve">
<style type="text/css">
	.st0{fill:#565656;}
</style>
<g transform="translate(0.000000,1154.000000) scale(0.100000,-0.100000)">
	<path class="st0" d="M5385,11519c-1238-82-2392-549-3355-1359c-163-137-509-482-643-640C918,8964,568,8360,334,7702
		c-57-161-140-435-167-554l-15-68h1593c1563,0,1593,0,1617,19c15,12,162,282,374,687c250,479,359,677,387,706c49,51,109,78,172,78
		c68,0,122-27,175-87c42-47,74-122,484-1148c430-1075,440-1098,452-1064c110,312,1299,3641,1314,3683c43,113,132,180,240,179
		c31-1,71-8,91-16c51-21,110-76,130-122c10-22,248-674,529-1450c426-1174,516-1415,541-1440l29-30l253,3c994,12,2821,42,2825,47
		c3,2-10,62-28,131c-146,569-428,1194-775,1714c-532,801-1279,1470-2140,1916c-717,372-1471,580-2290,634
		C5945,11531,5566,11531,5385,11519z"/>
	<path class="st0" d="M6306,7787c-357-1002-656-1835-663-1851c-23-44-93-115-138-139c-29-16-59-21-110-22c-86,0-150,28-199,88
		c-26,32-135,294-473,1141l-440,1098l-260-498c-144-275-280-537-304-583c-73-143-161-222-290-262c-58-18-122-19-1695-19H100l-1,38
		c-2,52-35-147-59-357c-85-741-20-1526,186-2244c247-863,698-1660,1316-2327C2434,888,3631,259,4930,71c299-44,471-55,835-55
		c428,0,685,22,1065,93c1869,346,3464,1621,4222,3376c237,547,372,1066,445,1715c25,226,25,907,0,1140c-17,156-56,432-61,438
		c-2,1-707-8-1567-21c-878-13-1588-19-1619-15c-132,20-277,129-332,250c-14,29-234,630-489,1335c-255,706-466,1283-469,1283
		S6663,8790,6306,7787z M9761,5611l29-29v-197v-197l-34-34l-34-34h-128c-209,0-218,12-212,288l3,174l33,29l32,29h141h141L9761,5611z
		 M2705,4816c304-92,489-298,578-644c21-82,22-107,22-462c0-416-3-442-76-630c-90-235-292-414-544-482c-111-30-434-33-535-5
		c-177,50-283,111-393,226c-120,126-195,286-232,497c-21,123-21,665,0,788c37,211,112,371,233,497c86,91,184,156,292,193
		c139,49,191,56,385,52C2595,4843,2625,4840,2705,4816z M4925,4836c76-20,135-49,192-94l51-41l84,34c193,78,378,115,568,115
		c339,0,545-149,633-459c21-75,22-90,25-904l3-828l-30-29l-29-30h-136c-128,0-136,1-163,24l-28,24l-5,794c-6,878-3,841-73,944
		c-23,36-48,57-91,79c-57,29-65,30-185,29c-129,0-198-13-359-66l-64-20l7-37c4-20,9-412,12-872l4-837l-27-31l-26-31h-143h-143
		l-26,31l-26,31v752c0,449-4,786-10,836c-14,115-50,186-110,220c-41,23-55,25-160,24c-102,0-125-4-207-32c-51-17-129-48-173-68
		l-80-37v-848v-847l-26-31l-26-31h-144c-144,0-145,0-169,26l-25,27v1053v1052l26,31l26,31h140h140l29-29c21-22,29-39,29-65v-36
		l78,39c92,46,203,86,292,105C4664,4853,4860,4854,4925,4836z M8267,4830c228-54,381-202,453-435c47-154,50-211,50-998v-739l-29-29
		l-29-29h-137h-137l-28,28l-28,29l-4,754c-4,736-5,756-26,833c-34,124-78,181-172,225c-48,22-72,26-182,29c-174,6-284-19-480-110
		l-68-31v-839c0-901,1-881-49-908c-11-5-79-10-151-10h-132l-29,29l-29,29v1050v1050l26,31l26,31h140h140l29-29c21-21,29-39,29-65
		v-35l83,39c104,49,223,89,312,105C7958,4856,8170,4853,8267,4830z M9751,4791l29-29V3710V2658l-29-29l-29-29h-137h-137l-29,29
		l-29,29v1052v1052l29,29l29,29h137h137L9751,4791z"/>
	<path class="st0" d="M2280,4489c-25-5-77-25-117-44c-120-59-192-161-236-333c-20-81-22-110-22-402s2-321,22-402
		c44-172,116-274,236-333c83-40,150-55,251-55c293,1,457,169,496,509c17,145,8,570-15,671c-35,158-123,288-233,344
		C2562,4495,2404,4513,2280,4489z"/>
</g>
</svg>
