<?xml version="1.0" encoding="utf-8"?>
<!-- Generator: Adobe Illustrator 21.0.0, SVG Export Plug-In . SVG Version: 6.00 Build 0)  -->
<svg version="1.1" id="Layer_1" xmlns="http://www.w3.org/2000/svg" xmlns:xlink="http://www.w3.org/1999/xlink" x="0px" y="0px"
	 viewBox="0 0 765.5 646" style="enable-background:new 0 0 765.5 646;" xml:space="preserve">
<style type="text/css">
	.st0{fill:#565656;}
</style>
<g transform="translate(0.000000,646.000000) scale(0.100000,-0.100000)">
	<path class="st0" d="M203,6429c-67-26-137-94-171-167l-27-57V3230V255l33-67c37-76,82-120,162-157l55-26h3580h3580l56,27
		c70,35,121,84,157,151l27,52v2995v2995l-27,50c-35,66-90,118-158,149l-55,26l-3580-1C276,6449,255,6449,203,6429z M7391,6181l29-30
		l-2-1943l-3-1943l-447-3c-433-2-448-2-458,17c-5,11-257,699-560,1530c-302,831-555,1521-561,1534c-27,52-82,106-141,138
		c-60,33-67,34-168,34c-89,0-112-4-151-23c-67-33-121-82-151-138c-15-27-328-886-696-1909c-747-2074-691-1919-697-1913
		c-3,2-182,465-399,1028c-287,743-405,1038-432,1077c-43,63-133,126-212,149c-39,12-81,15-142,12c-73-3-98-9-153-36
		c-122-61-130-71-397-599c-409-805-451-888-463-895c-7-4-220-8-474-8H250v1950v1951l25,24l24,25h3531h3532L7391,6181z M5539,3363
		c250-687,469-1281,488-1321c48-103,140-198,241-250c131-68,130-67,670-63l482,3v-706c0-749,0-752-45-770c-9-3-1605-6-3546-6H299
		l-24,25l-25,24v716v715h503c554,0,559,1,687,63c42,21,90,57,136,102l70,70l279,552c154,304,283,549,286,545c4-4,186-470,404-1036
		c218-567,405-1047,416-1069c31-60,103-125,177-160c64-30,73-32,187-32c115,0,123,1,186,32c78,39,151,112,184,186
		c12,29,312,856,666,1840c353,983,645,1787,649,1787C5083,4610,5290,4049,5539,3363z"/>
</g>
</svg>
