<?xml version="1.0" encoding="utf-8"?>
<!-- Generator: Adobe Illustrator 21.0.0, SVG Export Plug-In . SVG Version: 6.00 Build 0)  -->
<svg version="1.1" id="Layer_1" xmlns="http://www.w3.org/2000/svg" xmlns:xlink="http://www.w3.org/1999/xlink" x="0px" y="0px"
	 viewBox="0 0 777 778" style="enable-background:new 0 0 777 778;" xml:space="preserve">
<style type="text/css">
	.st0{fill:#565656;}
</style>
<g transform="translate(0.000000,778.000000) scale(0.100000,-0.100000)">
	<path class="st0" d="M3655,7763c-704-45-1351-263-1935-653C699,6427,57,5283,12,4065c-13-336,7-619,65-922l27-143h576
		c445,0,580,3,593,13c9,6,183,329,386,717c400,766,412,784,519,837c146,72,326,4,405-154c14-26,219-536,457-1133l433-1085l17,50
		c179,514,1377,3859,1391,3882c32,51,106,110,162,129c153,52,323-18,391-159c13-29,271-729,571-1557c359-986,554-1511,567-1522
		c19-17,60-18,558-18h538l26,138c195,1023-9,2050-577,2902c-670,1004-1755,1635-2957,1720C4026,7769,3774,7771,3655,7763z"/>
	<path class="st0" d="M5140,5495c-6-16-308-864-671-1884c-363-1021-671-1879-685-1908c-38-78-128-157-210-183c-83-25-115-25-196,0
		c-74,23-144,78-182,143c-14,23-223,539-466,1147s-443,1106-445,1108s-376-708-561-1067c-80-155-201-257-349-296
		c-50-13-146-15-592-15c-382,0-533-3-533-11c0-6,23-65,51-131C804,1202,1848,342,3110,85c320-65,746-91,1077-66
		c497,39,963,166,1409,385c622,304,1156,776,1537,1357c140,212,292,508,375,727l20,52h-502c-551,0-551,0-668,62
		c-73,39-167,133-206,206c-16,31-247,653-512,1382s-484,1327-486,1329S5146,5510,5140,5495z"/>
</g>
</svg>
