<?xml version="1.0" encoding="utf-8"?>
<!-- Generator: Adobe Illustrator 21.0.0, SVG Export Plug-In . SVG Version: 6.00 Build 0)  -->
<svg version="1.1" id="Layer_1" xmlns="http://www.w3.org/2000/svg" xmlns:xlink="http://www.w3.org/1999/xlink" x="0px" y="0px"
	 viewBox="0 0 741 621" style="enable-background:new 0 0 741 621;" xml:space="preserve">
<style type="text/css">
	.st0{fill:#565656;}
</style>
<g transform="translate(0.000000,621.000000) scale(0.100000,-0.100000)">
	<path class="st0" d="M146,6198c-52-14-121-82-135-133c-8-28-11-598-11-1967V2170h543c419,0,547,3,560,12c9,7,84,148,168,313
		c502,993,539,1063,584,1108c172,173,464,117,565-108c15-33,211-538,436-1123l409-1062l16,47c163,466,1407,3900,1424,3929
		c108,184,394,184,499,1c13-23,272-726,576-1562c428-1179,557-1525,576-1543c24-21,31-22,247-22c122,0,354,3,514,7l293,6v1944
		c0,1772-1,1947-16,1976c-23,46-43,66-89,91l-40,21l-3540,2C1331,6208,172,6205,146,6198z"/>
	<path class="st0" d="M4937,4708c-82-238-1334-3706-1351-3743c-30-65-93-127-164-162c-50-24-69-27-152-28c-82,0-103,4-150,26
		c-67,32-112,68-149,123c-15,22-219,537-452,1143c-233,605-427,1099-431,1097c-3-2-141-271-305-597l-298-592l-75-76
		c-49-50-94-85-132-102c-117-55-136-57-730-57H0V963c0-539,4-790,11-818C26,93,93,26,145,11c58-16,7078-16,7126,0
		c51,17,97,55,119,99c19,38,20,60,20,835v795h-541h-540l-76,25c-130,44-225,122-286,232c-14,27-247,657-517,1399
		c-271,742-493,1350-495,1352C4954,4750,4946,4732,4937,4708z"/>
</g>
</svg>
