<?xml version="1.0" encoding="utf-8"?>
<!-- Generator: Adobe Illustrator 21.0.0, SVG Export Plug-In . SVG Version: 6.00 Build 0)  -->
<svg version="1.1" id="Layer_1" xmlns="http://www.w3.org/2000/svg" xmlns:xlink="http://www.w3.org/1999/xlink" x="0px" y="0px"
	 viewBox="0 0 1013 1013" style="enable-background:new 0 0 1013 1013;" xml:space="preserve">
<style type="text/css">
	.st0{fill:#565656;}
</style>
<g transform="translate(0.000000,1013.000000) scale(0.100000,-0.100000)">
	<path class="st0" d="M109,10097c-48-26-83-70-99-126c-6-23-10-710-10-1984V6040l1263,2c1358,3,1290,1,1316,53
		c147,287,672,1284,697,1322c109,161,309,159,411-3c17-27,223-532,459-1121c235-590,431-1073,434-1073c4,0,308,845,676,1878
		l669,1877l50,50c70,71,151,91,249,64c58-16,131-90,157-158c11-31,248-681,525-1446c375-1033,511-1396,530-1415l24-25l1330-3l1330-2
		v1965c0,1913-1,1967-19,2003c-22,43-53,73-98,96c-29,15-439,16-4941,16H153L109,10097z"/>
	<path class="st0" d="M5491,6748c-360-1008-662-1847-673-1865c-29-49-111-118-156-131c-103-31-199-5-269,72c-46,50-64,94-483,1140
		c-239,598-437,1089-440,1091s-140-256-305-572c-340-651-348-664-483-730l-76-38l-1303-3L0,5710V2947C0,955,3,174,11,145
		C26,92,93,25,146,11c30-8,1386-10,4935-9l4894,3l42,23c24,12,55,41,70,64l28,42l3,2783l2,2783H8792c-1446,0-1378-3-1495,56
		c-63,32-154,123-184,185c-12,24-232,622-488,1328s-469,1290-474,1298C6147,8575,5894,7879,5491,6748z M8991,4661l29-29v-197v-197
		l-34-34l-34-34h-128c-209,0-218,12-212,288l3,174l33,29l32,29h141h141L8991,4661z M1935,3866c302-91,488-296,577-639
		c19-74,22-115,25-423c5-379-2-450-58-619c-46-138-101-227-204-330c-75-76-106-99-185-138c-155-77-221-91-450-91
		c-160-1-207,2-260,17c-177,50-283,111-393,226c-120,126-195,286-232,497c-21,123-21,665,0,788c37,211,112,371,233,497
		c86,91,184,156,292,193c139,49,191,56,385,52C1825,3893,1855,3890,1935,3866z M4155,3886c80-21,126-44,186-91l57-44l84,34
		c193,78,377,115,568,115c339,0,545-149,633-459c21-75,22-90,25-904l3-828l-30-29l-29-30h-136c-128,0-136,1-163,24l-28,24l-5,794
		c-6,878-3,841-73,944c-23,36-48,57-91,79c-57,29-66,30-180,30c-126,0-191-12-347-61l-81-26l7-36c4-20,9-413,12-873l4-837l-27-31
		l-26-31h-143h-143l-26,31l-26,31v752c0,449-4,786-10,836c-14,115-50,186-110,220c-41,23-55,25-160,24c-102,0-125-4-207-32
		c-51-17-129-48-173-68l-80-37v-848v-847l-26-31l-26-31h-144c-144,0-145,0-169,26l-25,27v1053v1052l26,31l26,31h140h140l29-29
		c21-22,29-39,29-65v-36l78,39c92,46,203,86,292,105C3895,3903,4090,3904,4155,3886z M7499,3880c224-54,379-204,451-435
		c47-154,50-211,50-998v-739l-29-29l-29-29h-137h-137l-28,28l-28,29l-4,754c-4,735-5,756-26,833c-34,124-78,181-172,225
		c-48,22-72,26-182,29c-174,6-284-19-480-110l-68-31v-839c0-901,1-881-49-908c-11-5-79-10-151-10h-132l-29,29l-29,29v1050v1050
		l26,31l26,31h140h140l29-29c21-21,29-39,29-65v-35l93,44c100,47,231,89,317,104C7197,3906,7408,3902,7499,3880z M8981,3841l29-29
		V2760V1708l-29-29l-29-29h-137h-137l-29,29l-29,29v1052v1052l29,29l29,29h137h137L8981,3841z"/>
	<path class="st0" d="M1510,3539c-25-5-77-25-117-44c-120-59-192-161-236-333c-20-81-22-110-22-402s2-321,22-402
		c44-172,116-274,236-333c83-40,150-55,251-55c293,1,457,169,496,509c17,145,8,570-15,671c-35,158-123,288-233,344
		C1792,3545,1634,3563,1510,3539z"/>
</g>
</svg>
