<?xml version="1.0" encoding="utf-8"?>
<!-- Generator: Adobe Illustrator 21.0.0, SVG Export Plug-In . SVG Version: 6.00 Build 0)  -->
<svg version="1.1" id="Layer_1" xmlns="http://www.w3.org/2000/svg" xmlns:xlink="http://www.w3.org/1999/xlink" x="0px" y="0px"
	 viewBox="0 0 743 478" style="enable-background:new 0 0 743 478;" xml:space="preserve">
<style type="text/css">
	.st0{fill:#565656;}
</style>
<g transform="translate(0.000000,478.000000) scale(0.100000,-0.100000)">
	<path class="st0" d="M4823,4749c-74-28-154-104-186-176c-19-44-1276-3525-1354-3751c-9-24-19-40-23-35c-5,4-180,453-390,998
		c-209,545-394,1018-411,1052c-35,73-104,139-187,180c-52,26-66,28-172,28c-107,0-119-2-175-29c-35-17-82-53-114-85
		c-48-50-88-123-393-726c-186-369-346-676-355-683c-13-9-137-12-540-12H0v-265V979l588,3c563,3,589,4,643,24c84,30,164,82,230,147
		c53,53,73,87,195,330c217,433,426,838,430,834c2-2,184-471,404-1043c221-571,412-1058,425-1081c32-54,104-116,174-150
		c52-26,65-28,176-28c109,0,125,2,177,27c79,37,120,70,162,131c28,41,180,453,691,1871c360,1001,657,1821,659,1823s8-9,14-24
		c227-636,930-2550,949-2586c38-70,145-175,218-214c137-72,117-70,883-65l402,2v265v265l-516,2l-517,3l-556,1530
		c-306,842-567,1547-580,1568c-33,54-106,114-167,137C5011,4777,4895,4777,4823,4749z"/>
</g>
</svg>
