<?xml version="1.0" encoding="utf-8"?>
<!-- Generator: Adobe Illustrator 21.0.0, SVG Export Plug-In . SVG Version: 6.00 Build 0)  -->
<svg version="1.1" id="Layer_1" xmlns="http://www.w3.org/2000/svg" xmlns:xlink="http://www.w3.org/1999/xlink" x="0px" y="0px"
	 viewBox="0 0 742 621" style="enable-background:new 0 0 742 621;" xml:space="preserve">
<style type="text/css">
	.st0{fill:#565656;}
</style>
<g transform="translate(0.000000,621.000000) scale(0.100000,-0.100000)">
	<path class="st0" d="M156,6198c-52-14-121-82-135-133c-8-28-11-590-11-1937V2230h533h533l163,323c520,1024,522,1029,578,1088
		c125,132,316,163,482,80c58-30,147-115,174-167c8-16,189-482,402-1034c213-553,390-1008,394-1013c4-4,308,829,675,1850
		c368,1022,682,1887,698,1923c109,242,438,280,604,71c17-22,36-53,43-68c6-16,258-707,560-1538l549-1510l511-3l511-2v1915
		c0,1747-1,1919-16,1948c-23,46-43,66-89,91l-40,21l-3540,2C1341,6208,182,6205,156,6198z"/>
	<path class="st0" d="M4316,2768c-357-992-660-1825-674-1851c-36-67-129-150-199-178c-48-19-77-23-168-24c-103,0-114,2-175,31
		c-82,39-148,98-183,162c-20,37-451,1144-816,2096c-6,15-75-114-282-525l-274-544l-80-80c-56-56-100-90-146-112
		c-125-62-137-63-751-63H10V933c0-517,4-760,11-788C36,93,103,26,155,11c58-16,7078-16,7126,0c51,17,97,55,119,99
		c19,38,20,60,20,804v765l-567,3l-568,3l-60,24c-131,52-245,150-303,258c-17,32-235,621-485,1308c-251,688-459,1260-464,1273
		C4966,4566,4831,4198,4316,2768z"/>
</g>
</svg>
