<?xml version="1.0" encoding="UTF-8"?>
<svg xmlns="http://www.w3.org/2000/svg" xmlns:xlink="http://www.w3.org/1999/xlink" width="194pt" height="194pt" viewBox="0 0 194 194" version="1.1">
<g id="surface1">
<path style=" stroke:none;fill-rule:nonzero;fill:rgb(33.72549%,33.72549%,33.72549%);fill-opacity:1;" d="M 91.257812 0.425781 C 73.679688 1.546875 57.527344 6.980469 42.945312 16.707031 C 17.453125 33.738281 1.421875 62.265625 0.300781 92.636719 C -0.0234375 101.015625 0.472656 108.070312 1.921875 115.628906 L 2.597656 119.191406 L 16.976562 119.191406 C 28.089844 119.191406 31.460938 119.117188 31.785156 118.867188 C 32.007812 118.71875 36.351562 110.664062 41.421875 100.988281 C 51.410156 81.890625 51.707031 81.441406 54.378906 80.117188 C 58.023438 78.324219 62.519531 80.019531 64.492188 83.957031 C 64.839844 84.605469 69.960938 97.324219 75.902344 112.210938 L 86.714844 139.265625 L 87.136719 138.019531 C 91.605469 125.203125 121.519531 41.792969 121.867188 41.21875 C 122.667969 39.945312 124.515625 38.476562 125.914062 38.003906 C 129.734375 36.707031 133.976562 38.449219 135.675781 41.96875 C 136 42.691406 142.441406 60.144531 149.933594 80.792969 C 158.894531 105.378906 163.765625 118.46875 164.089844 118.742188 C 164.5625 119.167969 165.585938 119.191406 178.019531 119.191406 L 191.453125 119.191406 L 192.101562 115.75 C 196.972656 90.242188 191.878906 64.632812 177.695312 43.386719 C 160.96875 18.351562 133.878906 2.617188 103.867188 0.5 C 100.519531 0.273438 94.230469 0.222656 91.257812 0.425781 Z M 91.257812 0.425781 "/>
<path style=" stroke:none;fill-rule:nonzero;fill:rgb(33.72549%,33.72549%,33.72549%);fill-opacity:1;" d="M 128.335938 56.976562 C 128.183594 57.378906 120.644531 78.523438 111.582031 103.957031 C 102.519531 129.417969 94.828125 150.8125 94.476562 151.535156 C 93.53125 153.480469 91.28125 155.449219 89.234375 156.097656 C 87.164062 156.722656 86.363281 156.722656 84.339844 156.097656 C 82.492188 155.523438 80.746094 154.152344 79.796875 152.53125 C 79.449219 151.957031 74.230469 139.089844 68.164062 123.929688 C 62.09375 108.769531 57.101562 96.351562 57.050781 96.300781 C 57 96.25 47.664062 113.957031 43.042969 122.910156 C 41.046875 126.773438 38.027344 129.316406 34.332031 130.289062 C 33.082031 130.613281 30.683594 130.664062 19.550781 130.664062 C 10.011719 130.664062 6.242188 130.738281 6.242188 130.9375 C 6.242188 131.085938 6.816406 132.558594 7.515625 134.203125 C 20.074219 164.027344 46.140625 185.472656 77.648438 191.878906 C 85.640625 193.5 96.277344 194.148438 104.539062 193.527344 C 116.949219 192.554688 128.585938 189.386719 139.71875 183.925781 C 155.25 176.34375 168.582031 164.574219 178.09375 150.089844 C 181.589844 144.800781 185.386719 137.421875 187.457031 131.960938 L 187.957031 130.664062 L 175.425781 130.664062 C 161.667969 130.664062 161.667969 130.664062 158.746094 129.117188 C 156.921875 128.144531 154.574219 125.800781 153.601562 123.980469 C 153.203125 123.207031 147.433594 107.699219 140.820312 89.519531 C 134.203125 71.339844 128.734375 56.429688 128.683594 56.378906 C 128.632812 56.328125 128.484375 56.605469 128.335938 56.976562 Z M 128.335938 56.976562 "/>
</g>
</svg>
