<?xml version="1.0" encoding="UTF-8"?>
<svg xmlns="http://www.w3.org/2000/svg" xmlns:xlink="http://www.w3.org/1999/xlink" width="368pt" height="246pt" viewBox="0 0 368 246" version="1.1">
<g id="surface1">
<path style=" stroke:none;fill-rule:nonzero;fill:rgb(33.72549%,33.72549%,33.72549%);fill-opacity:1;" d="M 174.375 0.5 C 157.5 1.398438 140.476562 4.5 125.375 9.425781 C 89.199219 21.199219 56.925781 43.300781 31.476562 73.699219 C 21.425781 85.699219 11.949219 99.851562 4.675781 113.773438 C 2.648438 117.648438 0.550781 122.050781 0.949219 121.625 C 1.074219 121.476562 2.125 119.976562 3.273438 118.25 C 4.398438 116.523438 6.476562 113.550781 7.851562 111.625 C 26 86.148438 47.050781 65.101562 70.625 48.824219 C 98.476562 29.601562 130.5 17.398438 162.375 13.875 C 169.601562 13.074219 171.601562 12.976562 180.25 12.824219 C 190 12.675781 194.574219 12.949219 201.648438 14.125 C 215.773438 16.5 229.550781 21.476562 242.601562 29 C 258.476562 38.125 269.449219 46.5 299.125 72.226562 C 323.601562 93.425781 335.574219 102.898438 350.25 112.675781 C 355.726562 116.324219 366 122.523438 366 122.175781 C 366 122.125 364.851562 121.199219 363.449219 120.101562 C 357.074219 115.25 348.726562 108.226562 341.375 101.601562 C 333.726562 94.699219 327.800781 89 312.25 73.625 C 289.601562 51.25 280.601562 42.851562 270.375 34.625 C 252.925781 20.601562 237.449219 11.726562 220.75 6.175781 C 213.351562 3.699219 203.449219 1.648438 195.125 0.875 C 190.125 0.398438 179.648438 0.226562 174.375 0.5 Z M 174.375 0.5 "/>
<path style=" stroke:none;fill-rule:nonzero;fill:rgb(33.72549%,33.72549%,33.72549%);fill-opacity:1;" d="M 177.625 26.398438 C 177.074219 26.449219 175.324219 26.625 173.75 26.773438 C 162.574219 27.824219 150.375 31.398438 140 36.675781 C 130.523438 41.5 122.773438 47.175781 115.125 54.851562 C 107.375 62.625 101.074219 71.5 96.398438 81.300781 C 90.648438 93.226562 87.476562 106.101562 87.074219 118.800781 L 86.925781 123.5 L 102.148438 123.5 C 110.523438 123.5 117.5 123.398438 117.648438 123.300781 C 118.050781 123.050781 118.175781 122.773438 124.476562 108.800781 C 127.625 101.773438 130.476562 95.550781 130.773438 94.949219 C 132.101562 92.351562 133.976562 90.75 136.550781 90.074219 C 137.875 89.75 138.351562 89.726562 139.550781 89.976562 C 141.351562 90.351562 143.074219 91.5 144.273438 93.101562 C 144.976562 94 149.273438 104.375 161.898438 135.375 C 174.5 166.300781 178.675781 176.324219 178.824219 175.949219 C 178.925781 175.648438 186.050781 152.074219 194.648438 123.523438 C 203.25 94.976562 210.476562 71.324219 210.675781 70.925781 C 211.300781 69.699219 212.800781 68.226562 214.101562 67.550781 C 215.199219 66.976562 215.675781 66.875 217.625 66.875 C 219.476562 66.875 220.074219 66.976562 221.050781 67.449219 C 223.726562 68.773438 223.324219 68.023438 236.976562 96.425781 C 243.898438 110.824219 249.75 122.824219 249.949219 123.050781 C 250.300781 123.476562 251.375 123.5 265.625 123.5 L 280.949219 123.5 L 280.824219 120.300781 C 280 97.125 271.726562 76.175781 256.601562 59 C 240.898438 41.125 219.226562 29.800781 195.125 26.851562 C 192.050781 26.476562 179.976562 26.175781 177.625 26.398438 Z M 177.625 26.398438 "/>
<path style=" stroke:none;fill-rule:nonzero;fill:rgb(33.72549%,33.72549%,33.72549%);fill-opacity:1;" d="M 202.898438 136.300781 C 194.398438 164.523438 187.199219 188.199219 186.875 188.925781 C 186.125 190.601562 184.226562 192.625 182.625 193.449219 C 180.949219 194.300781 178.125 194.5 176.273438 193.875 C 174.800781 193.398438 172.398438 191.324219 171.699219 189.949219 C 171.449219 189.5 163.824219 170.851562 154.726562 148.5 C 145.648438 126.148438 138.125 107.75 138.050781 107.574219 C 137.949219 107.425781 136.199219 111.023438 134.148438 115.574219 C 132.101562 120.148438 129.824219 125.125 129.125 126.625 C 127.074219 130.925781 124.800781 133.050781 120.925781 134.375 L 119.023438 135 L 87.574219 135 L 87.675781 135.800781 C 88.976562 146.199219 92.351562 157.199219 97.25 166.875 C 104.375 180.949219 114.625 192.949219 127.25 202 C 139.101562 210.476562 153.023438 216.375 166.75 218.726562 C 173.148438 219.824219 176.625 220.101562 183.875 220.101562 C 191.398438 220.101562 195.476562 219.75 201.648438 218.625 C 227.449219 213.851562 250.449219 198.574219 264.875 176.625 C 273.074219 164.125 278 151.023438 280.101562 135.925781 L 280.226562 134.949219 L 265.550781 135.125 C 255.199219 135.25 250.351562 135.226562 249.125 135.023438 C 246.5 134.601562 243.550781 133.050781 241.625 131.125 C 239.851562 129.324219 241.101562 131.773438 227.5 103.449219 C 222.625 93.300781 218.574219 85 218.5 85 C 218.425781 85 211.398438 108.101562 202.898438 136.300781 Z M 202.898438 136.300781 "/>
<path style=" stroke:none;fill-rule:nonzero;fill:rgb(33.72549%,33.72549%,33.72549%);fill-opacity:1;" d="M 1.25 123.824219 C 1.25 123.898438 2.351562 124.824219 3.675781 125.898438 C 6.976562 128.574219 15.851562 136.101562 18.625 138.601562 C 29.199219 148.101562 36.074219 154.699219 59.625 178 C 76.824219 195.023438 85.898438 203.375 95.898438 211.425781 C 112.375 224.675781 127.949219 233.699219 143.75 239.125 C 163.523438 245.925781 185.175781 247.398438 211 243.726562 C 245.699219 238.824219 279.925781 223.398438 308 200.050781 C 315.625 193.699219 325.101562 184.574219 331.050781 177.875 C 341.875 165.625 351.023438 152.898438 358.925781 139 C 361.226562 134.976562 367.050781 123.625 366.574219 124.125 C 366.449219 124.25 365.226562 126 363.875 128 C 348.824219 150.226562 332.125 168.898438 313.375 184.5 C 281.976562 210.625 245.773438 226.875 208 231.726562 C 200.25 232.726562 195.800781 233.050781 187.300781 233.175781 C 175.75 233.375 169.351562 232.824219 159.625 230.851562 C 141.175781 227.101562 122.523438 218.023438 102.25 202.925781 C 93.148438 196.148438 85.324219 189.699219 67.5 174.273438 C 37.675781 148.476562 21.875 136.273438 4.625 125.773438 C 0.949219 123.523438 1.25 123.699219 1.25 123.824219 Z M 1.25 123.824219 "/>
</g>
</svg>
