<?xml version="1.0" encoding="UTF-8"?>
<svg xmlns="http://www.w3.org/2000/svg" xmlns:xlink="http://www.w3.org/1999/xlink" width="230pt" height="154pt" viewBox="0 0 230 154" version="1.1">
<g id="surface1">
<path style=" stroke:none;fill-rule:nonzero;fill:rgb(33.72549%,33.72549%,33.72549%);fill-opacity:1;" d="M 108.984375 0.3125 C 98.4375 0.875 87.796875 2.8125 78.359375 5.890625 C 55.75 13.25 35.578125 27.0625 19.671875 46.0625 C 13.390625 53.5625 7.46875 62.40625 2.921875 71.109375 C 1.65625 73.53125 0.34375 76.28125 0.59375 76.015625 C 0.671875 75.921875 1.328125 74.984375 2.046875 73.90625 C 2.75 72.828125 4.046875 70.96875 4.90625 69.765625 C 16.25 53.84375 29.40625 40.6875 44.140625 30.515625 C 61.546875 18.5 81.5625 10.875 101.484375 8.671875 C 106 8.171875 107.25 8.109375 112.65625 8.015625 C 118.75 7.921875 121.609375 8.09375 126.03125 8.828125 C 134.859375 10.3125 143.46875 13.421875 151.625 18.125 C 161.546875 23.828125 168.40625 29.0625 186.953125 45.140625 C 202.25 58.390625 209.734375 64.3125 218.90625 70.421875 C 222.328125 72.703125 228.75 76.578125 228.75 76.359375 C 228.75 76.328125 228.03125 75.75 227.15625 75.0625 C 223.171875 72.03125 217.953125 67.640625 213.359375 63.5 C 208.578125 59.1875 204.875 55.625 195.15625 46.015625 C 181 32.03125 175.375 26.78125 168.984375 21.640625 C 158.078125 12.875 148.40625 7.328125 137.96875 3.859375 C 133.34375 2.3125 127.15625 1.03125 121.953125 0.546875 C 118.828125 0.25 112.28125 0.140625 108.984375 0.3125 Z M 108.984375 0.3125 "/>
<path style=" stroke:none;fill-rule:nonzero;fill:rgb(33.72549%,33.72549%,33.72549%);fill-opacity:1;" d="M 111.015625 16.5 C 110.671875 16.53125 109.578125 16.640625 108.59375 16.734375 C 101.609375 17.390625 93.984375 19.625 87.5 22.921875 C 81.578125 25.9375 76.734375 29.484375 71.953125 34.28125 C 67.109375 39.140625 63.171875 44.6875 60.25 50.8125 C 56.65625 58.265625 54.671875 66.3125 54.421875 74.25 L 54.328125 77.1875 L 63.84375 77.1875 C 69.078125 77.1875 73.4375 77.125 73.53125 77.0625 C 73.78125 76.90625 73.859375 76.734375 77.796875 68 C 79.765625 63.609375 81.546875 59.71875 81.734375 59.34375 C 82.5625 57.71875 83.734375 56.71875 85.34375 56.296875 C 86.171875 56.09375 86.46875 56.078125 87.21875 56.234375 C 88.34375 56.46875 89.421875 57.1875 90.171875 58.1875 C 90.609375 58.75 93.296875 65.234375 101.1875 84.609375 C 109.0625 103.9375 111.671875 110.203125 111.765625 109.96875 C 111.828125 109.78125 116.28125 95.046875 121.65625 77.203125 C 127.03125 59.359375 131.546875 44.578125 131.671875 44.328125 C 132.0625 43.5625 133 42.640625 133.8125 42.21875 C 134.5 41.859375 134.796875 41.796875 136.015625 41.796875 C 137.171875 41.796875 137.546875 41.859375 138.15625 42.15625 C 139.828125 42.984375 139.578125 42.515625 148.109375 60.265625 C 152.4375 69.265625 156.09375 76.765625 156.21875 76.90625 C 156.4375 77.171875 157.109375 77.1875 166.015625 77.1875 L 175.59375 77.1875 L 175.515625 75.1875 C 175 60.703125 169.828125 47.609375 160.375 36.875 C 150.5625 25.703125 137.015625 18.625 121.953125 16.78125 C 120.03125 16.546875 112.484375 16.359375 111.015625 16.5 Z M 111.015625 16.5 "/>
<path style=" stroke:none;fill-rule:nonzero;fill:rgb(33.72549%,33.72549%,33.72549%);fill-opacity:1;" d="M 126.8125 85.1875 C 121.5 102.828125 117 117.625 116.796875 118.078125 C 116.328125 119.125 115.140625 120.390625 114.140625 120.90625 C 113.09375 121.4375 111.328125 121.5625 110.171875 121.171875 C 109.25 120.875 107.75 119.578125 107.3125 118.71875 C 107.15625 118.4375 102.390625 106.78125 96.703125 92.8125 C 91.03125 78.84375 86.328125 67.34375 86.28125 67.234375 C 86.21875 67.140625 85.125 69.390625 83.84375 72.234375 C 82.5625 75.09375 81.140625 78.203125 80.703125 79.140625 C 79.421875 81.828125 78 83.15625 75.578125 83.984375 L 74.390625 84.375 L 54.734375 84.375 L 54.796875 84.875 C 55.609375 91.375 57.71875 98.25 60.78125 104.296875 C 65.234375 113.09375 71.640625 120.59375 79.53125 126.25 C 86.9375 131.546875 95.640625 135.234375 104.21875 136.703125 C 108.21875 137.390625 110.390625 137.5625 114.921875 137.5625 C 119.625 137.5625 122.171875 137.34375 126.03125 136.640625 C 142.15625 133.65625 156.53125 124.109375 165.546875 110.390625 C 170.671875 102.578125 173.75 94.390625 175.0625 84.953125 L 175.140625 84.34375 L 165.96875 84.453125 C 159.5 84.53125 156.46875 84.515625 155.703125 84.390625 C 154.0625 84.125 152.21875 83.15625 151.015625 81.953125 C 149.90625 80.828125 150.6875 82.359375 142.1875 64.65625 C 139.140625 58.3125 136.609375 53.125 136.5625 53.125 C 136.515625 53.125 132.125 67.5625 126.8125 85.1875 Z M 126.8125 85.1875 "/>
<path style=" stroke:none;fill-rule:nonzero;fill:rgb(33.72549%,33.72549%,33.72549%);fill-opacity:1;" d="M 0.78125 77.390625 C 0.78125 77.4375 1.46875 78.015625 2.296875 78.6875 C 4.359375 80.359375 9.90625 85.0625 11.640625 86.625 C 18.25 92.5625 22.546875 96.6875 37.265625 111.25 C 48.015625 121.890625 53.6875 127.109375 59.9375 132.140625 C 70.234375 140.421875 79.96875 146.0625 89.84375 149.453125 C 102.203125 153.703125 115.734375 154.625 131.875 152.328125 C 153.5625 149.265625 174.953125 139.625 192.5 125.03125 C 197.265625 121.0625 203.1875 115.359375 206.90625 111.171875 C 213.671875 103.515625 219.390625 95.5625 224.328125 86.875 C 225.765625 84.359375 229.40625 77.265625 229.109375 77.578125 C 229.03125 77.65625 228.265625 78.75 227.421875 80 C 218.015625 93.890625 207.578125 105.5625 195.859375 115.3125 C 176.234375 131.640625 153.609375 141.796875 130 144.828125 C 125.15625 145.453125 122.375 145.65625 117.0625 145.734375 C 109.84375 145.859375 105.84375 145.515625 99.765625 144.28125 C 88.234375 141.9375 76.578125 136.265625 63.90625 126.828125 C 58.21875 122.59375 53.328125 118.5625 42.1875 108.921875 C 23.546875 92.796875 13.671875 85.171875 2.890625 78.609375 C 0.59375 77.203125 0.78125 77.3125 0.78125 77.390625 Z M 0.78125 77.390625 "/>
</g>
</svg>
