<?xml version="1.0" encoding="UTF-8"?>
<svg xmlns="http://www.w3.org/2000/svg" xmlns:xlink="http://www.w3.org/1999/xlink" width="115pt" height="77pt" viewBox="0 0 115 77" version="1.1">
<g id="surface1">
<path style=" stroke:none;fill-rule:nonzero;fill:rgb(33.72549%,33.72549%,33.72549%);fill-opacity:1;" d="M 54.492188 0.15625 C 49.21875 0.4375 43.898438 1.40625 39.179688 2.945312 C 27.875 6.625 17.789062 13.53125 9.835938 23.03125 C 6.695312 26.78125 3.734375 31.203125 1.460938 35.554688 C 0.828125 36.765625 0.171875 38.140625 0.296875 38.007812 C 0.335938 37.960938 0.664062 37.492188 1.023438 36.953125 C 1.375 36.414062 2.023438 35.484375 2.453125 34.882812 C 8.125 26.921875 14.703125 20.34375 22.070312 15.257812 C 30.773438 9.25 40.78125 5.4375 50.742188 4.335938 C 53 4.085938 53.625 4.054688 56.328125 4.007812 C 59.375 3.960938 60.804688 4.046875 63.015625 4.414062 C 67.429688 5.15625 71.734375 6.710938 75.8125 9.0625 C 80.773438 11.914062 84.203125 14.53125 93.476562 22.570312 C 101.125 29.195312 104.867188 32.15625 109.453125 35.210938 C 111.164062 36.351562 114.375 38.289062 114.375 38.179688 C 114.375 38.164062 114.015625 37.875 113.578125 37.53125 C 111.585938 36.015625 108.976562 33.820312 106.679688 31.75 C 104.289062 29.59375 102.4375 27.8125 97.578125 23.007812 C 90.5 16.015625 87.6875 13.390625 84.492188 10.820312 C 79.039062 6.4375 74.203125 3.664062 68.984375 1.929688 C 66.671875 1.15625 63.578125 0.515625 60.976562 0.273438 C 59.414062 0.125 56.140625 0.0703125 54.492188 0.15625 Z M 54.492188 0.15625 "/>
<path style=" stroke:none;fill-rule:nonzero;fill:rgb(33.72549%,33.72549%,33.72549%);fill-opacity:1;" d="M 55.507812 8.25 C 55.335938 8.265625 54.789062 8.320312 54.296875 8.367188 C 50.804688 8.695312 46.992188 9.8125 43.75 11.460938 C 40.789062 12.96875 38.367188 14.742188 35.976562 17.140625 C 33.554688 19.570312 31.585938 22.34375 30.125 25.40625 C 28.328125 29.132812 27.335938 33.15625 27.210938 37.125 L 27.164062 38.59375 L 31.921875 38.59375 C 34.539062 38.59375 36.71875 38.5625 36.765625 38.53125 C 36.890625 38.453125 36.929688 38.367188 38.898438 34 C 39.882812 31.804688 40.773438 29.859375 40.867188 29.671875 C 41.28125 28.859375 41.867188 28.359375 42.671875 28.148438 C 43.085938 28.046875 43.234375 28.039062 43.609375 28.117188 C 44.171875 28.234375 44.710938 28.59375 45.085938 29.09375 C 45.304688 29.375 46.648438 32.617188 50.59375 42.304688 C 54.53125 51.96875 55.835938 55.101562 55.882812 54.984375 C 55.914062 54.890625 58.140625 47.523438 60.828125 38.601562 C 63.515625 29.679688 65.773438 22.289062 65.835938 22.164062 C 66.03125 21.78125 66.5 21.320312 66.90625 21.109375 C 67.25 20.929688 67.398438 20.898438 68.007812 20.898438 C 68.585938 20.898438 68.773438 20.929688 69.078125 21.078125 C 69.914062 21.492188 69.789062 21.257812 74.054688 30.132812 C 76.21875 34.632812 78.046875 38.382812 78.109375 38.453125 C 78.21875 38.585938 78.554688 38.59375 83.007812 38.59375 L 87.796875 38.59375 L 87.757812 37.59375 C 87.5 30.351562 84.914062 23.804688 80.1875 18.4375 C 75.28125 12.851562 68.507812 9.3125 60.976562 8.390625 C 60.015625 8.273438 56.242188 8.179688 55.507812 8.25 Z M 55.507812 8.25 "/>
<path style=" stroke:none;fill-rule:nonzero;fill:rgb(33.72549%,33.72549%,33.72549%);fill-opacity:1;" d="M 63.40625 42.59375 C 60.75 51.414062 58.5 58.8125 58.398438 59.039062 C 58.164062 59.5625 57.570312 60.195312 57.070312 60.453125 C 56.546875 60.71875 55.664062 60.78125 55.085938 60.585938 C 54.625 60.4375 53.875 59.789062 53.65625 59.359375 C 53.578125 59.21875 51.195312 53.390625 48.351562 46.40625 C 45.515625 39.421875 43.164062 33.671875 43.140625 33.617188 C 43.109375 33.570312 42.5625 34.695312 41.921875 36.117188 C 41.28125 37.546875 40.570312 39.101562 40.351562 39.570312 C 39.710938 40.914062 39 41.578125 37.789062 41.992188 L 37.195312 42.1875 L 27.367188 42.1875 L 27.398438 42.4375 C 27.804688 45.6875 28.859375 49.125 30.390625 52.148438 C 32.617188 56.546875 35.820312 60.296875 39.765625 63.125 C 43.46875 65.773438 47.820312 67.617188 52.109375 68.351562 C 54.109375 68.695312 55.195312 68.78125 57.460938 68.78125 C 59.8125 68.78125 61.085938 68.671875 63.015625 68.320312 C 71.078125 66.828125 78.265625 62.054688 82.773438 55.195312 C 85.335938 51.289062 86.875 47.195312 87.53125 42.476562 L 87.570312 42.171875 L 82.984375 42.226562 C 79.75 42.265625 78.234375 42.257812 77.851562 42.195312 C 77.03125 42.0625 76.109375 41.578125 75.507812 40.976562 C 74.953125 40.414062 75.34375 41.179688 71.09375 32.328125 C 69.570312 29.15625 68.304688 26.5625 68.28125 26.5625 C 68.257812 26.5625 66.0625 33.78125 63.40625 42.59375 Z M 63.40625 42.59375 "/>
<path style=" stroke:none;fill-rule:nonzero;fill:rgb(33.72549%,33.72549%,33.72549%);fill-opacity:1;" d="M 0.390625 38.695312 C 0.390625 38.71875 0.734375 39.007812 1.148438 39.34375 C 2.179688 40.179688 4.953125 42.53125 5.820312 43.3125 C 9.125 46.28125 11.273438 48.34375 18.632812 55.625 C 24.007812 60.945312 26.84375 63.554688 29.96875 66.070312 C 35.117188 70.210938 39.984375 73.03125 44.921875 74.726562 C 51.101562 76.851562 57.867188 77.3125 65.9375 76.164062 C 76.78125 74.632812 87.476562 69.8125 96.25 62.515625 C 98.632812 60.53125 101.59375 57.679688 103.453125 55.585938 C 106.835938 51.757812 109.695312 47.78125 112.164062 43.4375 C 112.882812 42.179688 114.703125 38.632812 114.554688 38.789062 C 114.515625 38.828125 114.132812 39.375 113.710938 40 C 109.007812 46.945312 103.789062 52.78125 97.929688 57.65625 C 88.117188 65.820312 76.804688 70.898438 65 72.414062 C 62.578125 72.726562 61.1875 72.828125 58.53125 72.867188 C 54.921875 72.929688 52.921875 72.757812 49.882812 72.140625 C 44.117188 70.96875 38.289062 68.132812 31.953125 63.414062 C 29.109375 61.296875 26.664062 59.28125 21.09375 54.460938 C 11.773438 46.398438 6.835938 42.585938 1.445312 39.304688 C 0.296875 38.601562 0.390625 38.65625 0.390625 38.695312 Z M 0.390625 38.695312 "/>
</g>
</svg>
