<svg width="230" height="154" xmlns="http://www.w3.org/2000/svg">

 <g>
  <title>background</title>
  <rect fill="none" id="canvas_background" height="602" width="802" y="-1" x="-1"/>
 </g>
 <g>
  <title>Layer 1</title>
  <g id="surface1">
   <path id="svg_1" fill-rule="nonzero" fill="#ffffff" d="m108.98438,0.3125c-10.54688,0.5625 -21.1875,2.5 -30.625,5.57813c-22.60938,7.35937 -42.78125,21.17187 -58.6875,40.17187c-6.28125,7.5 -12.20313,16.34375 -16.75,25.04688c-1.26563,2.42187 -2.57813,5.17187 -2.32813,4.90625c0.07813,-0.09375 0.73438,-1.03125 1.45313,-2.10938c0.70312,-1.07812 2,-2.9375 2.85937,-4.14062c11.34375,-15.92188 24.5,-29.07813 39.23438,-39.25c17.40625,-12.01563 37.42187,-19.64063 57.34375,-21.84375c4.51562,-0.5 5.76562,-0.5625 11.17187,-0.65625c6.09375,-0.09375 8.95313,0.07812 13.375,0.8125c8.82813,1.48437 17.4375,4.59375 25.59375,9.29687c9.92188,5.70313 16.78125,10.9375 35.32813,27.01563c15.29687,13.25 22.78125,19.17187 31.95312,25.28125c3.42188,2.28125 9.84375,6.15625 9.84375,5.9375c0,-0.03125 -0.71875,-0.60938 -1.59375,-1.29688c-3.98437,-3.03125 -9.20312,-7.42187 -13.79687,-11.5625c-4.78125,-4.3125 -8.48438,-7.875 -18.20313,-17.48437c-14.15625,-13.98438 -19.78125,-19.23438 -26.17187,-24.375c-10.90625,-8.76563 -20.57813,-14.3125 -31.01563,-17.78125c-4.625,-1.54688 -10.8125,-2.82813 -16.01562,-3.3125c-3.125,-0.29688 -9.67188,-0.40625 -12.96875,-0.23438zm0,0"/>
   <path id="svg_2" fill-rule="nonzero" fill="#ffffff" d="m111.01563,16.5c-0.34375,0.03125 -1.4375,0.14063 -2.42188,0.23438c-6.98437,0.65625 -14.60937,2.89062 -21.09375,6.1875c-5.92187,3.01562 -10.76562,6.5625 -15.54687,11.35937c-4.84375,4.85938 -8.78125,10.40625 -11.70313,16.53125c-3.59375,7.45313 -5.57812,15.5 -5.82812,23.4375l-0.09375,2.9375l9.51562,0c5.23438,0 9.59375,-0.0625 9.6875,-0.125c0.25,-0.15625 0.32813,-0.32812 4.26563,-9.0625c1.96875,-4.39062 3.75,-8.28125 3.9375,-8.65625c0.82812,-1.625 2,-2.625 3.60937,-3.04687c0.82813,-0.20313 1.125,-0.21875 1.875,-0.0625c1.125,0.23437 2.20313,0.95312 2.95313,1.95312c0.4375,0.5625 3.125,7.04688 11.01562,26.42188c7.875,19.32812 10.48438,25.59375 10.57813,25.35937c0.0625,-0.1875 4.51562,-14.92187 9.89062,-32.76562c5.375,-17.84375 9.89063,-32.625 10.01563,-32.875c0.39062,-0.76563 1.32812,-1.6875 2.14062,-2.10938c0.6875,-0.35937 0.98438,-0.42187 2.20313,-0.42187c1.15625,0 1.53125,0.0625 2.14062,0.35937c1.67188,0.82813 1.42188,0.35938 9.95313,18.10938c4.32812,9 7.98437,16.5 8.10937,16.64062c0.21875,0.26563 0.89063,0.28125 9.79688,0.28125l9.57812,0l-0.07812,-2c-0.51563,-14.48437 -5.6875,-27.57812 -15.14063,-38.3125c-9.8125,-11.17187 -23.35937,-18.25 -38.42187,-20.09375c-1.92188,-0.23437 -9.46875,-0.42187 -10.9375,-0.28125zm0,0"/>
   <path id="svg_3" fill-rule="nonzero" fill="#ffffff" d="m126.8125,85.1875c-5.3125,17.64063 -9.8125,32.4375 -10.01562,32.89063c-0.46875,1.04687 -1.65625,2.3125 -2.65625,2.82812c-1.04688,0.53125 -2.8125,0.65625 -3.96875,0.26563c-0.92188,-0.29688 -2.42188,-1.59375 -2.85938,-2.45313c-0.15625,-0.28125 -4.92187,-11.9375 -10.60937,-25.90625c-5.67188,-13.96875 -10.375,-25.46875 -10.42188,-25.57812c-0.0625,-0.09375 -1.15625,2.15625 -2.4375,5c-1.28125,2.85937 -2.70312,5.96875 -3.14062,6.90625c-1.28125,2.6875 -2.70313,4.01562 -5.125,4.84375l-1.1875,0.39062l-19.65625,0l0.0625,0.5c0.8125,6.5 2.92187,13.375 5.98437,19.42188c4.45313,8.79687 10.85938,16.29687 18.75,21.95312c7.40625,5.29688 16.10938,8.98438 24.6875,10.45313c4,0.6875 6.17188,0.85937 10.70313,0.85937c4.70312,0 7.25,-0.21875 11.10937,-0.92187c16.125,-2.98438 30.5,-12.53125 39.51563,-26.25c5.125,-7.8125 8.20312,-16 9.51562,-25.4375l0.07813,-0.60938l-9.17188,0.10938c-6.46875,0.07812 -9.5,0.0625 -10.26562,-0.0625c-1.64063,-0.26563 -3.48438,-1.23438 -4.6875,-2.4375c-1.10938,-1.125 -0.32813,0.40625 -8.82813,-17.29688c-3.04687,-6.34375 -5.57812,-11.53125 -5.625,-11.53125c-0.04687,0 -4.4375,14.4375 -9.75,32.0625zm0,0"/>
   <path id="svg_4" fill-rule="nonzero" fill="#ffffff" d="m0.78125,77.39063c0,0.04687 0.6875,0.625 1.51563,1.29687c2.0625,1.67188 7.60937,6.375 9.34375,7.9375c6.60937,5.9375 10.90625,10.0625 25.625,24.625c10.75,10.64063 16.42187,15.85938 22.67187,20.89063c10.29688,8.28125 20.03125,13.92187 29.90625,17.3125c12.35938,4.25 25.89063,5.17187 42.03125,2.875c21.6875,-3.0625 43.07813,-12.70313 60.625,-27.29688c4.76563,-3.96875 10.6875,-9.67187 14.40625,-13.85937c6.76563,-7.65625 12.48438,-15.60938 17.42188,-24.29688c1.4375,-2.51562 5.07812,-9.60937 4.78125,-9.29687c-0.07813,0.07812 -0.84375,1.17187 -1.6875,2.42187c-9.40625,13.89063 -19.84375,25.5625 -31.5625,35.3125c-19.625,16.32813 -42.25,26.48438 -65.85938,29.51563c-4.84375,0.625 -7.625,0.82812 -12.9375,0.90625c-7.21875,0.125 -11.21875,-0.21875 -17.29687,-1.45313c-11.53125,-2.34375 -23.1875,-8.01562 -35.85938,-17.45312c-5.6875,-4.23438 -10.57812,-8.26563 -21.71875,-17.90625c-18.64062,-16.125 -28.51562,-23.75 -39.29687,-30.3125c-2.29688,-1.40625 -2.10938,-1.29688 -2.10938,-1.21875zm0,0"/>
  </g>
 </g>
</svg>