<?xml version="1.0" encoding="utf-8"?>
<!-- Generator: Adobe Illustrator 21.0.0, SVG Export Plug-In . SVG Version: 6.00 Build 0)  -->
<svg version="1.1" id="Layer_1" xmlns="http://www.w3.org/2000/svg" xmlns:xlink="http://www.w3.org/1999/xlink" x="0px" y="0px"
	 viewBox="0 0 1472 984" style="enable-background:new 0 0 1472 984;" xml:space="preserve">
<style type="text/css">
	.st0{fill:#565656;}
</style>
<g transform="translate(0.000000,984.000000) scale(0.100000,-0.100000)">
	<path class="st0" d="M6975,9820c-675-36-1356-160-1960-357c-1447-471-2738-1355-3756-2571C857,6412,478,5846,187,5289
		c-81-155-165-331-149-314c5,6,47,66,93,135c45,69,128,188,183,265c726,1019,1568,1861,2511,2512c1114,769,2395,1257,3670,1398
		c289,32,369,36,715,42c390,6,573-5,856-52c565-95,1116-294,1638-595c635-365,1074-700,2261-1729c979-848,1458-1227,2045-1618
		c219-146,630-394,630-380c0,2-46,39-102,83c-255,194-589,475-883,740c-306,276-543,504-1165,1119c-906,895-1266,1231-1675,1560
		c-698,561-1317,916-1985,1138c-296,99-692,181-1025,212C7605,9824,7186,9831,6975,9820z"/>
	<path class="st0" d="M7105,8784c-22-2-92-9-155-15c-447-42-935-185-1350-396c-379-193-689-420-995-727c-310-311-562-666-749-1058
		c-230-477-357-992-373-1500l-6-188h609c335,0,614,4,620,8c16,10,21,21,273,580c126,281,240,530,252,554c53,104,128,168,231,195
		c53,13,72,14,120,4c72-15,141-61,189-125c28-36,200-451,705-1691c504-1237,671-1638,677-1623c4,12,289,955,633,2097
		s633,2088,641,2104c25,49,85,108,137,135c44,23,63,27,141,27c74,0,98-4,137-23c107-53,91-23,637-1159c277-576,511-1056,519-1065
		c14-17,57-18,627-18h613l-5,128c-33,927-364,1765-969,2452c-628,715-1495,1168-2459,1286C7682,8781,7199,8793,7105,8784z"/>
	<path class="st0" d="M8116,4388c-340-1129-628-2076-641-2105c-30-67-106-148-170-181c-67-34-180-42-254-17c-59,19-155,102-183,157
		c-10,18-315,764-679,1658c-363,894-664,1630-667,1637c-4,6-74-138-156-320c-82-183-173-382-201-442c-82-172-173-257-328-310l-76-25
		h-629h-629l4-32c52-416,187-856,383-1243c285-563,695-1043,1200-1405c474-339,1031-575,1580-669c256-44,395-55,685-55
		c301,0,464,14,711,59c1032,191,1952,802,2529,1680c328,500,525,1024,609,1628l5,39l-587-7c-414-5-608-4-657,4
		c-105,17-223,79-300,156c-71,72-21-26-565,1107c-195,406-357,738-360,738S8456,5516,8116,4388z"/>
	<path class="st0" d="M50,4887c0-3,44-40,97-83c132-107,487-408,598-508c423-380,698-644,1640-1576c688-681,1051-1015,1451-1337
		c659-530,1282-891,1914-1108C6541,3,7407-56,8440,91c1388,196,2757,813,3880,1747c305,254,684,619,922,887
		c433,490,799,999,1115,1555c92,161,325,615,306,595c-5-5-54-75-108-155c-602-889-1270-1636-2020-2260C11279,1415,9831,765,8320,571
		c-310-40-488-53-828-58c-462-8-718,14-1107,93c-738,150-1484,513-2295,1117c-364,271-677,529-1390,1146
		C1507,3901,875,4389,185,4809C38,4899,50,4892,50,4887z"/>
</g>
</svg>
