<?xml version="1.0" encoding="utf-8"?>
<!-- Generator: Adobe Illustrator 21.0.0, SVG Export Plug-In . SVG Version: 6.00 Build 0)  -->
<svg version="1.1" id="Layer_1" xmlns="http://www.w3.org/2000/svg" xmlns:xlink="http://www.w3.org/1999/xlink" x="0px" y="0px"
	 viewBox="0 0 2033 891.8" style="enable-background:new 0 0 2033 891.8;" xml:space="preserve">
<style type="text/css">
	.st0{fill:#565656;}
</style>
<g transform="translate(0.000000,913.000000) scale(0.100000,-0.100000)">
	<path class="st0" d="M108,9100c-42-23-80-69-97-119C-5,8933-5,413,11,355c15-53,82-120,135-134c30-8,2775-10,10041-9l9992.3,3
		c5,0,9.9,1.4,14.2,4.1l41.5,25.9c32,20,56,45,72,74l20,38.2c2,3.8,3,8.1,3,12.4V4664c0,4165-1,4302-19,4341c-22,47-64,89-104,104
		c-20,8-2991,11-10045,11C247,9119,145,9119,108,9100z M17496,7610c18-12,42-40,54-64c20-42,21-55,18-394c-3-336-4-352-24-378
		c-11-15-33-37-48-48c-26-20-41-21-264-21c-352,0-332-29-332,467c0,335,1,355,20,386c11,18,34,41,52,52c30,18,51,20,262,20
		C17447,7630,17465,7629,17496,7610z M10462,6908c67-31,140-96,172-152c13-23,255-679,537-1458l507.6-1400.3
		c3.8-10.6,13.9-17.7,25.2-17.7h293.2h286.2c14.8,0,26.8,12,26.8,26.8V5061c0,1316-5,1225,69,1275c35,24,37,24,289,24
		c270,0,284-2,328-52c32-35,44-82,44-174c0-46,2-84,4-84s45,23,95,51c285,156,608,267,889,303c144,19,435,21,567,5
		c602-73,993-450,1124-1084c57-279,55-200,58-1860c4-1706,9-1587-65-1643l-27.9-21.5c-4.6-3.6-10.2-5.5-16.1-5.6l-248-2.9
		c-253-3-256-3-290,20c-19,13-45,39-57,57l-18.4,27.2c-3,4.4-4.6,9.7-4.6,15V3294c-1,1402-5,1633-35,1813c-68,406-268,612-642,663
		c-132,18-429,8-554-19c-208-45-426-121-656-231l-107.8-51.7c-9.3-4.5-15.2-13.9-15.2-24.2V3695c0-1460-2-1771-14-1798
		c-15-37-76-94-109-102c-12-3-133-5-269-3l-236.3,2.9c-6.8,0.1-13.4,2.8-18.3,7.5l-23.3,22.6c-63,60-60,20-60,775v663.2
		c0,14.8-12,26.8-26.8,26.8H11963c-384,0-422,5-542,62c-91,43-216,168-258,258c-17,36-214,572-439,1192
		c-176.5,486.3-329,900-388.5,1052.4c-9,23-41.6,22.7-50.1-0.5c-72.6-198.4-304.3-841.2-575.5-1593.9c-461-1283-599-1657-628-1699
		c-162-239-543-237-706,3c-24,35-149,346-389,971c-194,506-357,929-361,940c-9,23-24-4-307-560c-187-367-196-382-264-451
		c-50-51-91-81-145-108c-119-58-183-65-587-66h-330.6c-12.9,0-24-9.3-26.4-22l0,0c-3-13-14-72-26-133c-46-241-158-516-290-715
		c-86-129-283-326-410-409c-225-148-479-238-782-277c-166-21-542-15-683,10c-405,74-693,220-937,474c-270,282-436,672-492,1162
		c-23,195-23,1145,0,1340c56,490,222,880,492,1162c210,218,444,352,759,434c186,47,329,64,558,64c448,0,780-90,1095-298
		c117-77,318-279,400-402c129-195,241-467,290-709c45-221,51-304,57-704l4.7-360.4c0.2-14.7,12.2-26.5,27-26.4l294.4,1.8l303.8,2.8
		c10,0.1,19.1,5.7,23.6,14.6L6957,4500c173,338,330,635,349,659c86,111,212,167,359,159c71-4,95-10,159-41c82-41,152-109,190-187
		c13-25,177-447,367-938c331-861,344-892,355-860c6,18,287,798,624,1733c441,1226,621,1715,646,1752
		C10100,6922,10304,6980,10462,6908z M17495,6000c59-55,55,96,55-2090s4-2035-55-2090c-27-25-27-25-260-28l-223.5-2.9
		c-6.7-0.1-13.3,2.4-18.3,6.9l-32.2,29c-24,22-45,52-51,73c-14,51-14,3973,0,4024c6,21,27,51,51,73l32.2,29c5,4.5,11.5,7,18.3,6.9
		l223.5-2.9C17468,6025,17468,6025,17495,6000z"/>
	<path class="st0" d="M4000,5734c-467-58-755-323-879-809c-52-206-56-271-56-865c0-595,4-660,52-865c107-456,363-725,769-810
		c186-39,476-27,652,26c397,122,634,454,709,999c26,188,25,1096-1,1285c-81,583-337,912-794,1016C4367,5730,4087,5745,4000,5734z"/>
</g>
</svg>
