<?xml version="1.0" encoding="utf-8"?>
<!-- Generator: Adobe Illustrator 21.0.0, SVG Export Plug-In . SVG Version: 6.00 Build 0)  -->
<svg version="1.1" id="Layer_1" xmlns="http://www.w3.org/2000/svg" xmlns:xlink="http://www.w3.org/1999/xlink" x="0px" y="0px"
	 viewBox="0 0 1631 905" style="enable-background:new 0 0 1631 905;" xml:space="preserve">
<style type="text/css">
	.st0{fill:#565656;}
</style>
<g transform="translate(0.000000,905.000000) scale(0.100000,-0.100000)">
	<path class="st0" d="M15164,7631c-31-14-47-30-63-64c-22-44-22-52-19-394c4-471-17-443,333-443c256,0,271,4,306,72
		c18,35,19,63,19,391c0,351,0,354-23,388c-42,63-66,69-302,69C15232,7650,15200,7647,15164,7631z"/>
	<path class="st0" d="M8195,7013c-73-27-138-75-177-134c-25-38-196-501-659-1785c-343-954-626-1734-629-1734s-156,390-339,868
		c-184,477-349,899-367,939c-125,276-478,339-684,123c-37-38-105-166-365-678l-320-631l-291-1h-292l-5,358c-5,392-17,506-76,741
		c-165,657-586,1093-1201,1245c-188,46-307,59-545,59c-245,1-377-14-569-62C923,6130,484,5525,420,4588c-13-185-13-871,0-1056
		c64-936,504-1543,1256-1733c192-48,324-63,569-62c238,0,357,13,545,59c687,169,1131,696,1248,1480l18,119l359,5c357,5,361,5,431,31
		c39,14,97,43,128,64c115,76,137,111,399,627c133,263,245,478,248,478s165-413,359-917c194-505,364-940,377-967
		c101-202,367-285,577-179c64,33,137,101,168,160c14,27,293,789,619,1695s597,1644,600,1640c4-4,39-95,77-202
		c436-1212,769-2114,798-2161c48-79,135-162,213-203c122-64,140-66,588-66h403v-728v-728l23-44c16-33,34-51,67-67
		c42-22,56-23,270-23c253,0,285,7,331,71l24,34l3,1782l2,1783l88,44c269,135,577,237,815,271c192,27,446,14,597-31
		c138-41,278-142,356-258c58-86,104-215,140-396c16-77,18-226,23-1635l6-1550l23-37c14-22,40-45,67-58c42-20,56-21,283-18l239,3
		l36,28c73,56,68-85,64,1645c-3,1707-1,1631-64,1897c-140,593-476,927-1032,1027c-139,24-468,30-621,10c-283-37-512-110-803-256
		c-111-55-205-102-209-104c-5-2-8,42-8,98c0,128-19,172-86,201c-41,18-63,20-288,17c-278-3-281-4-323-88l-23-44V5114V3982l-72-7
		c-40-3-201-5-357-3l-285,3l-512,1412c-282,776-520,1428-529,1447c-28,59-90,121-157,156c-56,30-73,34-153,37
		C8267,7030,8233,7026,8195,7013z M2511,5730c196-40,340-113,470-237c166-159,272-367,328-648c35-173,41-294,41-785
		c0-263-5-524-10-581c-21-207-80-430-151-571c-103-206-275-372-468-453c-356-150-845-112-1124,89c-270,193-419,518-457,1000
		c-13,167-13,866,0,1032c32,400,134,678,323,880c157,168,351,260,619,294C2190,5763,2393,5754,2511,5730z"/>
	<path class="st0" d="M15172,6033c-18-9-43-30-55-47l-22-31l-3-2013c-2-2232-8-2055,62-2105c29-21,42-22,238-25c188-3,212-1,251,16
		c34,15,49,30,66,64l21,44v1994v1994l-21,44c-36,74-65,82-304,82C15241,6050,15199,6047,15172,6033z"/>
</g>
</svg>
