<?xml version="1.0" encoding="utf-8"?>
<!-- Generator: Adobe Illustrator 21.0.0, SVG Export Plug-In . SVG Version: 6.00 Build 0)  -->
<svg version="1.1" id="Layer_1" xmlns="http://www.w3.org/2000/svg" xmlns:xlink="http://www.w3.org/1999/xlink" x="0px" y="0px"
	 viewBox="0 0 1126 1163" style="enable-background:new 0 0 1126 1163;" xml:space="preserve">
<style type="text/css">
	.st0{fill:#565656;}
</style>
<g transform="translate(0.000000,1163.000000) scale(0.100000,-0.100000)">
	<path class="st0" d="M5275,11589c-82-4-244-19-360-33c-1636-200-3137-1101-4177-2506c-248-335-494-750-674-1137c-23-51-41-93-39-93
		s58,78,126,173c294,415,577,748,963,1132c814,812,1671,1350,2689,1687c517,171,1048,266,1622,289c639,25,1147-77,1718-345
		c329-154,746-425,1167-755c174-137,471-384,785-651c703-599,1078-893,1498-1171c255-169,617-384,617-366c0,3-44,40-97,83
		c-382,307-605,516-1463,1369c-766,762-898,889-1145,1105c-774,677-1483,1047-2258,1180C5973,11597,5669,11609,5275,11589z"/>
	<path class="st0" d="M5430,10743c-739-54-1409-364-1920-889c-241-247-399-471-545-769c-180-369-273-727-300-1162l-7-103h459h458
		l169,378c221,492,229,509,283,564c136,139,347,116,451-50c16-26,245-577,508-1225c330-810,481-1172,486-1160c4,10,213,699,463,1532
		c251,832,464,1530,475,1551c21,41,83,101,132,126c18,9,65,19,104,22c101,6,164-16,229-82c46-47,81-116,435-853l385-803h420
		c231,0,436,3,455,6l35,6l-7,130c-37,700-338,1380-837,1891c-506,518-1158,824-1886,887C5764,10749,5536,10751,5430,10743z"/>
	<path class="st0" d="M6251,7302c-249-829-466-1535-482-1569c-76-160-263-232-412-159c-32,15-75,48-100,76c-46,51-40,37-871,2082
		l-161,396l-16-31c-9-18-63-135-119-262c-57-126-115-248-130-270c-35-52-104-115-161-148c-93-54-122-57-637-57h-473l6-37
		c57-336,130-563,275-858c149-304,326-552,565-790c493-493,1126-791,1819-856c165-15,563-7,706,16c805,125,1482,530,1962,1173
		c286,382,460,799,552,1320l6,32h-478c-411,0-486,2-533,16c-83,25-128,51-195,116c-70,67-35,1-416,793c-138,286-251,521-252,522
		S6501,8131,6251,7302z"/>
	<path class="st0" d="M66,7733c17-15,95-84,175-153c314-272,506-456,1319-1265c465-463,913-902,995-976c511-459,922-750,1368-970
		c374-184,684-285,1072-348c274-45,428-55,757-48c1384,30,2673,532,3763,1465c441,378,846,838,1182,1342c121,182,298,481,373,630
		c65,128,171,355,162,345c-6-5-67-90-136-188c-878-1235-2015-2172-3226-2657c-683-273-1311-410-2020-441c-332-14-531-4-810,42
		c-651,107-1249,391-1975,937c-242,181-460,360-1000,817c-395,335-735,613-955,781c-327,251-771,550-1015,683l-60,33L66,7733z"/>
	<path class="st0" d="M10415,3715l-25-24v-235c0-234,0-235,24-263l24-28l155-3c173-4,205,4,226,56c9,20,11,95,9,251l-3,223l-28,24
		c-27,23-33,24-193,24C10442,3740,10439,3740,10415,3715z"/>
	<path class="st0" d="M4245,2760c-172-27-385-106-526-196l-37-23l-4,70c-3,55-8,74-26,92c-22,21-30,22-187,22c-158,0-165-1-187-23
		l-23-23V1389V98l28-24c27-23,34-24,182-24s155,1,182,24l28,24l3,1055l2,1055l123,55c202,91,302,119,441,125c140,5,208-7,265-48
		c53-39,89-94,115-178c20-65,20-90,26-1065l5-999l28-24c27-23,34-24,182-24s155,1,182,24l28,24l3,944c2,958,1,1000-34,1195l-6,31
		l123,40c180,59,306,82,441,82c134,0,200-16,274-66c54-37,79-66,114-134c56-109,54-68,60-1110c3-531,9-973,14-983
		c18-37,59-47,201-47c149,0,182,9,203,55c16,34,17,1818,2,1945c-40,325-162,528-381,633c-135,65-220,82-409,81
		c-231,0-428-43-691-147l-106-43l-49,44c-113,100-229,142-409,147C4359,2767,4278,2765,4245,2760z"/>
	<path class="st0" d="M1135,2744c-502-77-804-418-865-976c-13-126-13-630,0-756c61-562,364-901,872-976c185-28,367-18,546,29
		c390,103,631,387,719,846c15,80,18,150,18,479s-3,399-18,479c-88,459-329,743-719,846C1512,2761,1313,2772,1135,2744z M1529,2365
		c230-54,384-229,446-505c23-98,33-678,15-830c-39-338-201-553-462-615c-153-36-391-12-511,52c-71,38-186,155-224,228
		c-41,78-78,207-92,320c-14,114-14,633-1,745c25,205,87,349,194,455c124,123,235,164,446,164C1418,2380,1489,2374,1529,2365z"/>
	<path class="st0" d="M8379,2745c-170-27-311-74-469-156c-47-24-88-45-91-47c-4-2-8,29-11,68c-3,56-8,75-26,93c-22,21-30,22-187,22
		c-158,0-165-1-187-23l-23-23l-3-1272c-2-944,1-1279,9-1300c20-48,53-57,203-57c147,0,174,7,199,50c16,26,17,116,17,1067v1040l83,35
		c289,126,503,168,711,138c202-29,309-127,369-338c21-76,21-90,24-992c2-648,7-923,15-943c19-48,52-57,203-57s184,9,204,58
		c9,21,11,253,8,948c-4,1001-2,973-63,1166c-44,140-98,233-189,324c-94,95-194,149-335,184C8728,2758,8500,2765,8379,2745z"/>
	<path class="st0" d="M10441,2716c-53-29-50,32-51-1324c0-1373-3-1304,55-1330c35-16,285-16,320,0c58,26,55-43,55,1328
		s3,1302-55,1328C10728,2735,10473,2734,10441,2716z"/>
</g>
</svg>
