<?xml version="1.0" encoding="UTF-8"?>
<svg xmlns="http://www.w3.org/2000/svg" xmlns:xlink="http://www.w3.org/1999/xlink" width="472pt" height="195pt" viewBox="0 0 472 195" version="1.1">
<g id="surface1">
<path style=" stroke:none;fill-rule:nonzero;fill:rgb(33.72549%,33.72549%,33.72549%);fill-opacity:1;" d="M 368.640625 0.402344 C 348.144531 1.878906 329.597656 9.074219 313.882812 21.605469 C 309.804688 24.863281 302.121094 32.558594 298.917969 36.59375 C 287.078125 51.480469 280.097656 68.527344 277.996094 87.601562 C 277.570312 91.484375 277.570312 103.714844 277.996094 107.398438 C 278.394531 110.882812 279.195312 115.847656 279.695312 118.078125 L 280.097656 119.808594 L 294.535156 119.808594 C 305.722656 119.808594 309.078125 119.730469 309.351562 119.480469 C 309.578125 119.332031 313.832031 111.335938 318.8125 101.761719 C 323.816406 92.1875 328.246094 83.863281 328.648438 83.261719 C 330.199219 81.03125 333.503906 79.453125 335.90625 79.804688 C 338.484375 80.179688 340.910156 82.035156 342.1875 84.640625 C 342.511719 85.292969 347.617188 97.949219 353.5 112.738281 C 359.40625 127.5 364.3125 139.53125 364.410156 139.433594 C 364.511719 139.308594 372.195312 117.851562 381.480469 91.734375 C 390.765625 65.617188 398.597656 43.636719 398.871094 42.910156 C 399.648438 40.90625 400.925781 39.5 402.851562 38.550781 C 404.253906 37.847656 404.777344 37.746094 406.28125 37.746094 C 408.984375 37.746094 411.484375 39.050781 412.863281 41.128906 C 413.210938 41.65625 419.769531 59.378906 427.453125 80.480469 C 435.109375 101.585938 441.59375 119.082031 441.84375 119.355469 C 442.242188 119.855469 442.46875 119.855469 450.050781 119.707031 C 454.355469 119.632812 460.460938 119.480469 463.667969 119.40625 L 469.449219 119.253906 L 469.972656 116.449219 C 471.300781 109.503906 471.597656 106.097656 471.625 97.75 C 471.625 89.703125 471.472656 87.675781 470.472656 81.457031 C 467.269531 61.707031 457.535156 42.859375 443.269531 28.625 C 427.601562 13.035156 407.882812 3.558594 385.535156 0.851562 C 382.429688 0.5 371.570312 0.199219 368.640625 0.402344 Z M 368.640625 0.402344 "/>
<path style=" stroke:none;fill-rule:nonzero;fill:rgb(33.72549%,33.72549%,33.72549%);fill-opacity:1;" d="M 242.132812 52.257812 L 241.503906 52.859375 L 241.503906 58.75 C 241.503906 64.617188 241.503906 64.640625 242.105469 65.34375 L 242.707031 66.042969 L 246.585938 66.121094 C 250.914062 66.21875 251.714844 66.019531 252.242188 64.714844 C 252.46875 64.214844 252.515625 62.335938 252.46875 58.425781 L 252.390625 52.835938 L 251.691406 52.234375 C 251.015625 51.65625 250.867188 51.632812 246.863281 51.632812 C 242.808594 51.632812 242.730469 51.632812 242.132812 52.257812 Z M 242.132812 52.257812 "/>
<path style=" stroke:none;fill-rule:nonzero;fill:rgb(33.72549%,33.72549%,33.72549%);fill-opacity:1;" d="M 389.3125 104.292969 C 376.972656 139.03125 372.09375 152.492188 371.492188 153.367188 C 368.640625 157.628906 363.261719 158.554688 359.253906 155.523438 C 358.78125 155.148438 358.054688 154.347656 357.652344 153.71875 C 357.253906 153.117188 351.921875 140.132812 345.839844 124.871094 C 339.761719 109.605469 334.703125 97.050781 334.628906 96.949219 C 334.503906 96.824219 322.941406 118.703125 320.1875 124.269531 C 318.789062 127.125 315.835938 129.582031 312.507812 130.710938 L 310.605469 131.335938 L 297.089844 131.335938 C 289.632812 131.335938 283.550781 131.386719 283.550781 131.4375 C 283.550781 131.488281 284.101562 132.890625 284.800781 134.546875 C 289.980469 147.203125 298.492188 159.558594 308.226562 168.558594 C 322.117188 181.390625 338.683594 189.8125 356.550781 193.121094 C 362.308594 194.199219 365.835938 194.550781 372.292969 194.675781 C 379 194.824219 383.582031 194.574219 389.164062 193.746094 C 416.839844 189.609375 441.617188 173.46875 456.660156 149.757812 C 458.886719 146.273438 461.3125 141.789062 462.964844 138.179688 C 464.390625 135.019531 465.742188 131.710938 465.742188 131.3125 C 465.742188 131.160156 461.664062 131.136719 453.53125 131.238281 C 440.214844 131.4375 439.941406 131.410156 436.988281 130.035156 C 435.011719 129.105469 432.28125 126.472656 431.355469 124.621094 C 430.980469 123.867188 425.226562 108.253906 418.542969 89.90625 C 411.859375 71.558594 406.378906 56.519531 406.355469 56.496094 C 406.332031 56.46875 398.648438 77.976562 389.3125 104.292969 Z M 389.3125 104.292969 "/>
<path style=" stroke:none;fill-rule:nonzero;fill:rgb(33.72549%,33.72549%,33.72549%);fill-opacity:1;" d="M 99.730469 76.195312 C 95.425781 76.871094 90.09375 78.851562 86.566406 81.109375 L 85.640625 81.683594 L 85.539062 79.929688 C 85.464844 78.550781 85.339844 78.074219 84.890625 77.625 C 84.339844 77.097656 84.140625 77.074219 80.210938 77.074219 C 76.253906 77.074219 76.082031 77.097656 75.53125 77.648438 L 74.953125 78.226562 L 74.953125 142.917969 L 75.65625 143.519531 C 76.332031 144.09375 76.507812 144.121094 80.210938 144.121094 C 83.914062 144.121094 84.089844 144.09375 84.765625 143.519531 L 85.464844 142.917969 L 85.539062 116.472656 L 85.589844 90.03125 L 88.667969 88.652344 C 93.722656 86.371094 96.226562 85.667969 99.707031 85.519531 C 103.210938 85.394531 104.910156 85.695312 106.335938 86.722656 C 107.664062 87.699219 108.566406 89.078125 109.214844 91.183594 C 109.714844 92.8125 109.714844 93.441406 109.867188 117.878906 L 109.992188 142.917969 L 110.691406 143.519531 C 111.367188 144.09375 111.542969 144.121094 115.246094 144.121094 C 118.949219 144.121094 119.125 144.09375 119.800781 143.519531 L 120.503906 142.917969 L 120.578125 119.253906 C 120.628906 95.246094 120.601562 94.191406 119.726562 89.304688 L 119.578125 88.527344 L 122.65625 87.523438 C 127.160156 86.046875 130.3125 85.46875 133.691406 85.46875 C 137.046875 85.46875 138.695312 85.871094 140.550781 87.125 C 141.898438 88.050781 142.527344 88.777344 143.402344 90.480469 C 144.804688 93.214844 144.753906 92.1875 144.902344 118.304688 C 144.980469 131.613281 145.128906 142.691406 145.253906 142.941406 C 145.703125 143.867188 146.730469 144.121094 150.285156 144.121094 C 154.011719 144.121094 154.839844 143.894531 155.363281 142.742188 C 155.765625 141.890625 155.789062 97.175781 155.414062 93.992188 C 154.414062 85.84375 151.359375 80.757812 145.878906 78.125 C 142.5 76.496094 140.375 76.070312 135.644531 76.09375 C 129.863281 76.09375 124.933594 77.171875 118.351562 79.78125 L 115.699219 80.855469 L 114.472656 79.753906 C 111.644531 77.25 108.738281 76.195312 104.234375 76.070312 C 102.582031 76.019531 100.554688 76.070312 99.730469 76.195312 Z M 99.730469 76.195312 "/>
<path style=" stroke:none;fill-rule:nonzero;fill:rgb(33.72549%,33.72549%,33.72549%);fill-opacity:1;" d="M 28.15625 76.597656 C 15.589844 78.527344 8.035156 87.074219 6.507812 101.058594 C 6.179688 104.21875 6.179688 116.851562 6.507812 120.007812 C 8.035156 134.09375 15.617188 142.589844 28.328125 144.46875 C 32.960938 145.171875 37.515625 144.921875 41.996094 143.742188 C 51.753906 141.160156 57.785156 134.042969 59.988281 122.539062 C 60.363281 120.535156 60.4375 118.78125 60.4375 110.535156 C 60.4375 102.289062 60.363281 100.53125 59.988281 98.527344 C 57.785156 87.023438 51.753906 79.90625 41.996094 77.324219 C 37.589844 76.171875 32.609375 75.894531 28.15625 76.597656 Z M 38.015625 86.097656 C 43.769531 87.449219 47.625 91.835938 49.175781 98.753906 C 49.753906 101.210938 50.003906 115.746094 49.550781 119.554688 C 48.578125 128.027344 44.523438 133.417969 37.992188 134.972656 C 34.160156 135.875 28.203125 135.273438 25.203125 133.667969 C 23.425781 132.714844 20.546875 129.78125 19.597656 127.953125 C 18.570312 126 17.644531 122.765625 17.292969 119.933594 C 16.941406 117.074219 16.941406 104.066406 17.269531 101.257812 C 17.894531 96.121094 19.445312 92.511719 22.125 89.855469 C 25.226562 86.773438 28.003906 85.746094 33.285156 85.746094 C 35.238281 85.71875 37.015625 85.871094 38.015625 86.097656 Z M 38.015625 86.097656 "/>
<path style=" stroke:none;fill-rule:nonzero;fill:rgb(33.72549%,33.72549%,33.72549%);fill-opacity:1;" d="M 197.183594 76.570312 C 192.929688 77.25 189.402344 78.425781 185.445312 80.480469 C 184.269531 81.082031 183.242188 81.609375 183.167969 81.660156 C 183.070312 81.710938 182.96875 80.933594 182.894531 79.953125 C 182.820312 78.550781 182.695312 78.074219 182.242188 77.625 C 181.691406 77.097656 181.492188 77.074219 177.5625 77.074219 C 173.609375 77.074219 173.433594 77.097656 172.882812 77.648438 L 172.308594 78.226562 L 172.234375 110.105469 C 172.183594 133.769531 172.257812 142.164062 172.457031 142.691406 C 172.957031 143.894531 173.785156 144.121094 177.539062 144.121094 C 181.21875 144.121094 181.894531 143.945312 182.519531 142.867188 C 182.917969 142.214844 182.945312 139.957031 182.945312 116.121094 L 182.945312 90.054688 L 185.019531 89.179688 C 192.253906 86.019531 197.609375 84.96875 202.816406 85.71875 C 207.871094 86.445312 210.546875 88.902344 212.050781 94.191406 C 212.574219 96.097656 212.574219 96.449219 212.648438 119.054688 C 212.699219 135.296875 212.824219 142.191406 213.027344 142.691406 C 213.5 143.894531 214.328125 144.121094 218.105469 144.121094 C 221.886719 144.121094 222.710938 143.894531 223.210938 142.664062 C 223.4375 142.140625 223.488281 136.324219 223.410156 118.90625 C 223.3125 93.816406 223.363281 94.515625 221.835938 89.679688 C 220.734375 86.171875 219.382812 83.839844 217.105469 81.558594 C 214.753906 79.179688 212.25 77.824219 208.722656 76.949219 C 205.917969 76.246094 200.210938 76.070312 197.183594 76.570312 Z M 197.183594 76.570312 "/>
<path style=" stroke:none;fill-rule:nonzero;fill:rgb(33.72549%,33.72549%,33.72549%);fill-opacity:1;" d="M 242.78125 77.296875 C 241.457031 78.023438 241.53125 76.496094 241.503906 110.484375 C 241.503906 144.898438 241.429688 143.167969 242.882812 143.820312 C 243.757812 144.21875 250.015625 144.21875 250.890625 143.820312 C 252.34375 143.167969 252.265625 144.898438 252.265625 110.535156 C 252.265625 76.171875 252.34375 77.898438 250.890625 77.25 C 249.964844 76.820312 243.582031 76.847656 242.78125 77.296875 Z M 242.78125 77.296875 "/>
</g>
</svg>
