<svg width="177" height="182" xmlns="http://www.w3.org/2000/svg">

 <g>
  <title>background</title>
  <rect fill="none" id="canvas_background" height="602" width="802" y="-1" x="-1"/>
 </g>
 <g>
  <title>Layer 1</title>
  <g id="surface1">
   <path id="svg_1" fill-rule="nonzero" fill="#ffffff" d="m82.80078,0.64063c-1.28515,0.0625 -3.82812,0.29687 -5.64844,0.51562c-25.67968,3.12891 -49.24218,17.21875 -65.5664,39.19141c-3.89453,5.23828 -7.75781,11.72656 -10.58203,17.78125c-0.35938,0.79687 -0.64453,1.45312 -0.61328,1.45312c0.03125,0 0.91015,-1.21875 1.98046,-2.70312c4.61329,-6.49219 9.05469,-11.69922 15.11329,-17.70313c12.78125,-12.69922 26.23437,-21.11328 42.21093,-26.38281c8.11719,-2.67578 16.45313,-4.16016 25.46094,-4.51953c10.03125,-0.39453 18.00781,1.20312 26.96875,5.39453c5.16406,2.41016 11.70703,6.64844 18.31641,11.80859c2.73437,2.14063 7.39453,6.00391 12.32422,10.17969c11.03515,9.36719 16.92187,13.96484 23.51562,18.3125c4.00391,2.64063 9.68359,6.00391 9.68359,5.72266c0,-0.04688 -0.6914,-0.625 -1.52343,-1.29688c-5.9961,-4.80078 -9.4961,-8.07031 -22.96485,-21.41015c-12.02343,-11.91407 -14.09765,-13.90235 -17.97265,-17.28125c-12.14844,-10.58594 -23.27735,-16.375 -35.44532,-18.45313c-4.30078,-0.73437 -9.07031,-0.92187 -15.25781,-0.60937zm0,0"/>
   <path id="svg_2" fill-rule="nonzero" fill="#ffffff" d="m85.23438,13.87109c-11.59766,0.84766 -22.11719,5.69141 -30.13672,13.90235c-3.78516,3.86328 -6.26172,7.36719 -8.55469,12.02734c-2.82422,5.76953 -4.28906,11.36719 -4.71094,18.17188l-0.10937,1.60937l14.39453,0l2.65234,-5.91015c3.46875,-7.69532 3.59375,-7.96094 4.44531,-8.82032c2.13282,-2.17187 5.44532,-1.8164 7.07813,0.78125c0.25,0.40625 3.84375,9.02344 7.97266,19.15625c5.17968,12.66797 7.55078,18.32813 7.6289,18.14063c0.0625,-0.15625 3.34375,-10.92969 7.26563,-23.95703c3.9414,-13.01172 7.28515,-23.92578 7.45703,-24.25391c0.33203,-0.64062 1.30469,-1.58203 2.07422,-1.97266c0.28125,-0.14062 1.01953,-0.29687 1.63281,-0.34375c1.58203,-0.09375 2.57031,0.25 3.59375,1.28125c0.72266,0.73829 1.26953,1.81641 6.82812,13.33985l6.04297,12.55859l6.59375,0c3.625,0 6.84375,-0.04687 7.14063,-0.09375l0.55078,-0.09375l-0.10938,-2.03515c-0.58203,-10.94141 -5.30468,-21.57813 -13.14062,-29.57032c-7.94141,-8.09765 -18.17578,-12.88672 -29.60156,-13.87109c-1.7461,-0.14063 -5.32422,-0.17188 -6.98828,-0.04688zm0,0"/>
   <path id="svg_3" fill-rule="nonzero" fill="#ffffff" d="m98.12109,67.68359c-3.90625,12.96485 -7.3125,24.00391 -7.5664,24.53516c-1.19141,2.50391 -4.125,3.62891 -6.46485,2.48828c-0.5,-0.23437 -1.17578,-0.75 -1.57031,-1.1875c-0.72265,-0.80078 -0.6289,-0.58203 -13.67187,-32.55859l-2.52735,-6.19531l-0.2539,0.48437c-0.13672,0.28125 -0.98438,2.10938 -1.86719,4.09766c-0.89453,1.96875 -1.80469,3.8789 -2.03906,4.22265c-0.54688,0.8125 -1.63282,1.79688 -2.52735,2.3125c-1.45703,0.84766 -1.91406,0.89063 -9.99609,0.89063l-7.42578,0l0.09375,0.58203c0.89453,5.25391 2.03906,8.80469 4.3164,13.41406c2.33985,4.75781 5.11719,8.63281 8.86719,12.35938c7.73828,7.70703 17.67578,12.36718 28.55469,13.38672c2.58984,0.23046 8.83594,0.10937 11.08203,-0.25391c12.63672,-1.95313 23.26172,-8.28906 30.79688,-18.34375c4.49218,-5.97266 7.21875,-12.49219 8.66406,-20.64063l0.09765,-0.5039l-7.5039,0c-6.45313,0 -7.62891,-0.02735 -8.36719,-0.2461c-1.30469,-0.39062 -2.01172,-0.80078 -3.0625,-1.8164c-1.09766,-1.04688 -0.55078,-0.01172 -6.53125,-12.40235c-2.16406,-4.47265 -3.9375,-8.14453 -3.95312,-8.16015c-0.01563,-0.01953 -3.21875,10.57031 -7.14454,23.53515zm0,0"/>
   <path id="svg_4" fill-rule="nonzero" fill="#ffffff" d="m1.03516,60.94141c0.26562,0.23437 1.49218,1.3125 2.74609,2.39453c4.92969,4.2539 7.94531,7.1289 20.70703,19.78125c7.29688,7.24219 14.32813,14.10547 15.61719,15.26562c8.01953,7.17578 14.47266,11.72657 21.47656,15.16797c5.8711,2.87891 10.73438,4.45703 16.82422,5.44141c4.30078,0.70312 6.71875,0.85937 11.88281,0.75c21.72657,-0.46875 41.96094,-8.32031 59.07032,-22.91016c6.92187,-5.91015 13.27734,-13.10547 18.55078,-20.98437c1.90234,-2.84766 4.67968,-7.52344 5.85547,-9.85547c1.02343,-2 2.68359,-5.55078 2.54296,-5.39453c-0.09375,0.07812 -1.05078,1.41015 -2.13281,2.9414c-13.78515,19.3125 -31.6289,33.96485 -50.64062,41.55078c-10.72266,4.26954 -20.57813,6.41016 -31.70703,6.89844c-5.21094,0.21485 -8.33594,0.0586 -12.71485,-0.65625c-10.21875,-1.67578 -19.60547,-6.11719 -31,-14.65625c-3.80078,-2.83203 -7.22265,-5.6289 -15.69922,-12.77344c-6.19922,-5.24218 -11.53906,-9.58984 -14.98828,-12.21484c-5.13672,-3.92578 -12.10547,-8.60156 -15.93359,-10.68359l-0.94531,-0.51563l0.48828,0.45313zm0,0"/>
   <path id="svg_5" fill-rule="nonzero" fill="#ffffff" d="m163.48438,123.77734l-0.39063,0.375l0,3.67579c0,3.66015 0,3.67578 0.375,4.11328l0.37891,0.4375l2.43359,0.04687c2.71484,0.0625 3.21484,-0.0625 3.54688,-0.875c0.14062,-0.3125 0.17187,-1.48437 0.14062,-3.92578l-0.04687,-3.48828l-0.4375,-0.375c-0.42579,-0.35938 -0.51954,-0.375 -3.03125,-0.375c-2.54297,0 -2.59375,0 -2.96875,0.39062zm0,0"/>
   <path id="svg_6" fill-rule="nonzero" fill="#ffffff" d="m66.63281,138.71484c-2.69922,0.42188 -6.04297,1.65625 -8.2539,3.0625l-0.58203,0.36329l-0.0625,-1.09766c-0.04688,-0.85938 -0.125,-1.15625 -0.41016,-1.4375c-0.34375,-0.33203 -0.46875,-0.34375 -2.93359,-0.34375c-2.48047,0 -2.58985,0.01172 -2.9375,0.35547l-0.35938,0.36328l0,40.36328l0.44141,0.375c0.42187,0.35938 0.53515,0.375 2.85547,0.375c2.32421,0 2.43359,-0.01562 2.85546,-0.375l0.44141,-0.375l0.04688,-16.5l0.03125,-16.49609l1.92968,-0.86328c3.17188,-1.42188 4.74219,-1.85938 6.92188,-1.95313c2.19922,-0.07812 3.26562,0.10938 4.16015,0.75c0.83204,0.60938 1.39844,1.46875 1.80469,2.78125c0.3125,1.01953 0.3125,1.41016 0.41016,16.65625l0.07812,15.625l0.4375,0.375c0.42578,0.35938 0.53516,0.375 2.85938,0.375c2.32031,0 2.43359,-0.01562 2.85547,-0.375l0.4414,-0.375l0.04688,-14.76562c0.03125,-14.98047 0.01562,-15.63672 -0.53516,-18.6875l-0.09375,-0.48438l1.92969,-0.625c2.82812,-0.92187 4.80469,-1.28125 6.92187,-1.28125c2.10547,0 3.14063,0.25 4.30079,1.03125c0.84765,0.57813 1.24218,1.03125 1.78906,2.09375c0.88281,1.70703 0.84765,1.06641 0.94531,17.35938c0.04688,8.30468 0.14063,15.21875 0.21875,15.375c0.28125,0.57812 0.92578,0.73437 3.15234,0.73437c2.34375,0 2.85938,-0.14062 3.19141,-0.86328c0.24609,-0.52734 0.26563,-28.42969 0.03125,-30.41406c-0.62891,-5.08203 -2.54687,-8.25782 -5.98437,-9.89844c-2.11719,-1.01563 -3.45313,-1.28125 -6.41797,-1.26953c-3.625,0 -6.71875,0.67578 -10.84766,2.30078l-1.66406,0.67187l-0.76953,-0.6875c-1.77344,-1.5625 -3.59375,-2.21875 -6.42188,-2.29687c-1.03515,-0.03516 -2.30469,0 -2.82422,0.07812zm0,0"/>
   <path id="svg_7" fill-rule="nonzero" fill="#ffffff" d="m17.81641,138.96094c-7.88282,1.20703 -12.6211,6.53906 -13.57813,15.26562c-0.20312,1.96875 -0.20312,9.85157 0,11.82422c0.95703,8.78906 5.71485,14.08985 13.6875,15.26172c2.90625,0.4375 5.76172,0.28125 8.57031,-0.45312c6.1211,-1.61329 9.90625,-6.05079 11.28516,-13.23047c0.23438,-1.25391 0.28516,-2.34766 0.28516,-7.49219c0,-5.14453 -0.05078,-6.23828 -0.28516,-7.49219c-1.37891,-7.17578 -5.16406,-11.61719 -11.28516,-13.22656c-2.76171,-0.72266 -5.88671,-0.89453 -8.67968,-0.45703zm6.18359,5.92969c3.61328,0.84375 6.02734,3.58203 7,7.89843c0.36328,1.53125 0.51953,10.60157 0.23828,12.97657c-0.61328,5.28515 -3.15625,8.65234 -7.2539,9.62109c-2.39844,0.55859 -6.13672,0.1875 -8.01954,-0.8125c-1.11718,-0.59766 -2.92187,-2.42578 -3.51562,-3.56641c-0.64453,-1.21875 -1.22656,-3.23828 -1.44531,-5.00781c-0.21875,-1.78125 -0.21875,-9.89844 -0.01563,-11.64844c0.39063,-3.20703 1.36719,-5.45703 3.04688,-7.11718c1.94531,-1.92188 3.6875,-2.5625 7,-2.5625c1.22265,-0.01563 2.33984,0.07812 2.96484,0.21875zm0,0"/>
   <path id="svg_8" fill-rule="nonzero" fill="#ffffff" d="m131.52734,138.94922c-2.66796,0.42187 -4.88281,1.15625 -7.36328,2.4375c-0.73828,0.375 -1.3789,0.70312 -1.42968,0.73437c-0.0625,0.03125 -0.125,-0.45312 -0.17188,-1.0625c-0.04687,-0.875 -0.125,-1.17187 -0.41016,-1.45312c-0.34375,-0.33203 -0.46875,-0.34375 -2.93359,-0.34375c-2.48047,0 -2.58984,0.01172 -2.9375,0.35547l-0.35937,0.36328l-0.04688,19.89062c-0.03125,14.76172 0.01563,20 0.14063,20.33204c0.3164,0.75 0.83203,0.89062 3.1875,0.89062c2.30859,0 2.73437,-0.10937 3.125,-0.78516c0.25,-0.40234 0.26562,-1.8125 0.26562,-16.68359l0,-16.26562l1.30469,-0.54688c4.53515,-1.96875 7.89453,-2.625 11.16015,-2.15625c3.17188,0.45313 4.85157,1.98438 5.78907,5.28516c0.33203,1.1875 0.33203,1.40625 0.3789,15.51172c0.03125,10.13671 0.10938,14.4375 0.23438,14.75c0.30078,0.75 0.82031,0.89062 3.1875,0.89062c2.37109,0 2.88672,-0.14062 3.20312,-0.91016c0.14063,-0.32421 0.17188,-3.95312 0.125,-14.82421c-0.0625,-15.65235 -0.03125,-15.21485 -0.98828,-18.23438c-0.6914,-2.1875 -1.53906,-3.64453 -2.96875,-5.06641c-1.47265,-1.48437 -3.04687,-2.32812 -5.25781,-2.875c-1.75781,-0.4375 -5.33594,-0.54687 -7.23438,-0.23437zm0,0"/>
   <path id="svg_9" fill-rule="nonzero" fill="#ffffff" d="m163.89453,139.40234c-0.83203,0.44922 -0.78515,-0.5 -0.80078,20.70704c0,21.46875 -0.04687,20.38671 0.86328,20.79687c0.54688,0.25 4.47266,0.25 5.01953,0c0.91407,-0.41016 0.86719,0.67188 0.86719,-20.76953c0,-21.44141 0.04688,-20.36328 -0.86719,-20.76563c-0.57812,-0.26562 -4.58203,-0.2539 -5.08203,0.03125zm0,0"/>
  </g>
 </g>
</svg>