<?xml version="1.0" encoding="UTF-8"?>
<svg xmlns="http://www.w3.org/2000/svg" xmlns:xlink="http://www.w3.org/1999/xlink" width="282pt" height="291pt" viewBox="0 0 282 291" version="1.1">
<g id="surface1">
<path style=" stroke:none;fill-rule:nonzero;fill:rgb(33.72549%,33.72549%,33.72549%);fill-opacity:1;" d="M 132.109375 1.027344 C 130.054688 1.125 126 1.5 123.09375 1.851562 C 82.121094 6.855469 44.527344 29.398438 18.484375 64.554688 C 12.273438 72.9375 6.109375 83.320312 1.601562 93.003906 C 1.027344 94.28125 0.574219 95.332031 0.625 95.332031 C 0.675781 95.332031 2.078125 93.378906 3.78125 91.003906 C 11.144531 80.621094 18.230469 72.285156 27.898438 62.679688 C 48.285156 42.363281 69.75 28.898438 95.242188 20.46875 C 108.191406 16.1875 121.492188 13.8125 135.867188 13.238281 C 151.871094 12.609375 164.59375 15.164062 178.890625 21.867188 C 187.132812 25.722656 197.574219 32.503906 208.117188 40.761719 C 212.476562 44.1875 219.914062 50.367188 227.777344 57.050781 C 245.386719 72.035156 254.777344 79.394531 265.296875 86.347656 C 271.683594 90.578125 280.746094 95.957031 280.746094 95.507812 C 280.746094 95.433594 279.644531 94.507812 278.320312 93.429688 C 268.75 85.75 263.167969 80.519531 241.679688 59.175781 C 222.496094 40.109375 219.1875 36.933594 213.003906 31.527344 C 193.617188 14.585938 175.863281 5.328125 156.453125 2 C 149.589844 0.824219 141.976562 0.527344 132.109375 1.027344 Z M 132.109375 1.027344 "/>
<path style=" stroke:none;fill-rule:nonzero;fill:rgb(33.72549%,33.72549%,33.72549%);fill-opacity:1;" d="M 135.992188 22.195312 C 117.484375 23.546875 100.703125 31.300781 87.90625 44.4375 C 81.871094 50.617188 77.914062 56.222656 74.257812 63.679688 C 69.75 72.914062 67.417969 81.871094 66.742188 92.753906 L 66.566406 95.332031 L 89.535156 95.332031 L 93.765625 85.875 C 99.300781 73.5625 99.5 73.136719 100.855469 71.761719 C 104.261719 68.285156 109.542969 68.859375 112.148438 73.011719 C 112.550781 73.664062 118.285156 87.449219 124.871094 103.664062 C 133.136719 123.929688 136.917969 132.988281 137.042969 132.6875 C 137.144531 132.4375 142.378906 115.199219 148.636719 94.355469 C 154.925781 73.539062 160.257812 56.074219 160.535156 55.546875 C 161.0625 54.523438 162.613281 53.019531 163.839844 52.394531 C 164.292969 52.167969 165.46875 51.917969 166.445312 51.84375 C 168.972656 51.695312 170.550781 52.246094 172.179688 53.894531 C 173.332031 55.074219 174.207031 56.796875 183.074219 75.238281 L 192.714844 95.332031 L 203.234375 95.332031 C 209.019531 95.332031 214.15625 95.257812 214.628906 95.183594 L 215.507812 95.03125 L 215.332031 91.777344 C 214.40625 74.265625 206.867188 57.25 194.371094 44.464844 C 181.695312 31.503906 165.367188 23.84375 147.136719 22.269531 C 144.355469 22.042969 138.644531 21.992188 135.992188 22.195312 Z M 135.992188 22.195312 "/>
<path style=" stroke:none;fill-rule:nonzero;fill:rgb(33.72549%,33.72549%,33.72549%);fill-opacity:1;" d="M 156.550781 108.292969 C 150.316406 129.035156 144.882812 146.699219 144.480469 147.550781 C 142.578125 151.554688 137.894531 153.355469 134.164062 151.53125 C 133.363281 151.15625 132.285156 150.328125 131.660156 149.628906 C 130.507812 148.351562 130.65625 148.703125 109.84375 97.535156 L 105.8125 87.625 L 105.410156 88.402344 C 105.1875 88.851562 103.835938 91.777344 102.429688 94.957031 C 101.003906 98.109375 99.550781 101.160156 99.175781 101.710938 C 98.300781 103.011719 96.570312 104.589844 95.144531 105.414062 C 92.816406 106.765625 92.089844 106.839844 79.191406 106.839844 L 67.34375 106.839844 L 67.496094 107.769531 C 68.921875 116.175781 70.75 121.855469 74.382812 129.234375 C 78.113281 136.84375 82.546875 143.046875 88.53125 149.003906 C 100.878906 161.339844 116.730469 168.796875 134.085938 170.421875 C 138.21875 170.796875 148.1875 170.597656 151.769531 170.019531 C 171.929688 166.894531 188.886719 156.757812 200.90625 140.671875 C 208.070312 131.113281 212.425781 120.679688 214.730469 107.640625 L 214.882812 106.839844 L 202.910156 106.839844 C 192.617188 106.839844 190.738281 106.792969 189.5625 106.441406 C 187.480469 105.816406 186.355469 105.164062 184.675781 103.539062 C 182.925781 101.863281 183.800781 103.515625 174.257812 83.695312 C 170.804688 76.539062 167.972656 70.660156 167.949219 70.636719 C 167.921875 70.609375 162.8125 87.550781 156.550781 108.292969 Z M 156.550781 108.292969 "/>
<path style=" stroke:none;fill-rule:nonzero;fill:rgb(33.72549%,33.72549%,33.72549%);fill-opacity:1;" d="M 1.652344 97.507812 C 2.078125 97.882812 4.03125 99.609375 6.035156 101.335938 C 13.898438 108.144531 18.707031 112.746094 39.070312 132.988281 C 50.714844 144.574219 61.933594 155.558594 63.988281 157.410156 C 76.785156 168.894531 87.078125 176.175781 98.25 181.679688 C 107.617188 186.285156 115.378906 188.8125 125.097656 190.386719 C 131.957031 191.515625 135.816406 191.765625 144.054688 191.589844 C 178.71875 190.839844 211 178.277344 238.296875 154.933594 C 249.34375 145.476562 259.484375 133.964844 267.898438 121.355469 C 270.929688 116.800781 275.363281 109.320312 277.242188 105.589844 C 278.871094 102.386719 281.523438 96.707031 281.296875 96.957031 C 281.148438 97.082031 279.621094 99.210938 277.894531 101.664062 C 255.902344 132.5625 227.429688 156.007812 197.097656 168.144531 C 179.992188 174.976562 164.265625 178.402344 146.511719 179.179688 C 138.195312 179.527344 133.210938 179.277344 126.222656 178.128906 C 109.917969 175.449219 94.941406 168.34375 76.761719 154.683594 C 70.699219 150.152344 65.242188 145.675781 51.714844 134.242188 C 41.824219 125.859375 33.308594 118.902344 27.800781 114.699219 C 19.609375 108.417969 8.488281 100.9375 2.378906 97.609375 L 0.875 96.78125 Z M 1.652344 97.507812 "/>
<path style=" stroke:none;fill-rule:nonzero;fill:rgb(33.72549%,33.72549%,33.72549%);fill-opacity:1;" d="M 260.835938 198.046875 L 260.210938 198.644531 L 260.210938 204.527344 C 260.210938 210.378906 260.210938 210.40625 260.8125 211.105469 L 261.414062 211.808594 L 265.296875 211.882812 C 269.628906 211.980469 270.429688 211.78125 270.957031 210.480469 C 271.179688 209.980469 271.230469 208.105469 271.179688 204.199219 L 271.105469 198.621094 L 270.40625 198.019531 C 269.726562 197.445312 269.578125 197.417969 265.570312 197.417969 C 261.515625 197.417969 261.4375 197.417969 260.835938 198.046875 Z M 260.835938 198.046875 "/>
<path style=" stroke:none;fill-rule:nonzero;fill:rgb(33.72549%,33.72549%,33.72549%);fill-opacity:1;" d="M 106.3125 221.941406 C 102.007812 222.617188 96.671875 224.59375 93.140625 226.84375 L 92.214844 227.421875 L 92.113281 225.667969 C 92.039062 224.292969 91.914062 223.816406 91.460938 223.367188 C 90.910156 222.839844 90.710938 222.816406 86.777344 222.816406 C 82.820312 222.816406 82.648438 222.839844 82.09375 223.390625 L 81.519531 223.96875 L 81.519531 288.546875 L 82.222656 289.148438 C 82.898438 289.722656 83.074219 289.75 86.777344 289.75 C 90.484375 289.75 90.660156 289.722656 91.335938 289.148438 L 92.039062 288.546875 L 92.113281 262.148438 L 92.164062 235.753906 L 95.242188 234.375 C 100.304688 232.097656 102.808594 231.398438 106.289062 231.25 C 109.792969 231.125 111.496094 231.421875 112.925781 232.449219 C 114.253906 233.425781 115.152344 234.800781 115.804688 236.902344 C 116.304688 238.53125 116.304688 239.15625 116.457031 263.550781 L 116.582031 288.546875 L 117.28125 289.148438 C 117.960938 289.722656 118.132812 289.75 121.839844 289.75 C 125.546875 289.75 125.722656 289.722656 126.398438 289.148438 L 127.101562 288.546875 L 127.175781 264.925781 C 127.226562 240.957031 127.199219 239.90625 126.324219 235.027344 L 126.171875 234.25 L 129.253906 233.25 C 133.761719 231.773438 136.917969 231.199219 140.296875 231.199219 C 143.65625 231.199219 145.308594 231.597656 147.160156 232.851562 C 148.511719 233.777344 149.140625 234.5 150.015625 236.203125 C 151.417969 238.929688 151.367188 237.90625 151.519531 263.976562 C 151.59375 277.261719 151.742188 288.324219 151.871094 288.574219 C 152.320312 289.5 153.347656 289.75 156.902344 289.75 C 160.636719 289.75 161.460938 289.523438 161.988281 288.371094 C 162.386719 287.523438 162.414062 242.882812 162.039062 239.707031 C 161.035156 231.574219 157.980469 226.496094 152.496094 223.867188 C 149.113281 222.242188 146.984375 221.816406 142.253906 221.839844 C 136.46875 221.839844 131.535156 222.917969 124.945312 225.519531 L 122.292969 226.59375 L 121.066406 225.492188 C 118.234375 222.992188 115.328125 221.941406 110.820312 221.816406 C 109.167969 221.765625 107.140625 221.816406 106.3125 221.941406 Z M 106.3125 221.941406 "/>
<path style=" stroke:none;fill-rule:nonzero;fill:rgb(33.72549%,33.72549%,33.72549%);fill-opacity:1;" d="M 28.425781 222.339844 C 15.851562 224.269531 8.289062 232.800781 6.761719 246.761719 C 6.4375 249.914062 6.4375 262.527344 6.761719 265.679688 C 8.289062 279.742188 15.878906 288.222656 28.601562 290.097656 C 33.234375 290.800781 37.792969 290.550781 42.273438 289.375 C 52.042969 286.796875 58.078125 279.691406 60.28125 268.207031 C 60.65625 266.203125 60.734375 264.453125 60.734375 256.21875 C 60.734375 247.988281 60.65625 246.238281 60.28125 244.234375 C 58.078125 232.75 52.042969 225.644531 42.273438 223.066406 C 37.867188 221.914062 32.882812 221.640625 28.425781 222.339844 Z M 38.292969 231.824219 C 44.054688 233.175781 47.910156 237.554688 49.460938 244.460938 C 50.039062 246.914062 50.289062 261.425781 49.839844 265.226562 C 48.863281 273.683594 44.804688 279.066406 38.269531 280.617188 C 34.4375 281.515625 28.476562 280.917969 25.46875 279.316406 C 23.691406 278.363281 20.8125 275.4375 19.859375 273.609375 C 18.832031 271.660156 17.90625 268.429688 17.554688 265.601562 C 17.207031 262.75 17.207031 249.765625 17.53125 246.960938 C 18.15625 241.832031 19.710938 238.230469 22.390625 235.578125 C 25.496094 232.5 28.273438 231.472656 33.558594 231.472656 C 35.511719 231.449219 37.292969 231.597656 38.292969 231.824219 Z M 38.292969 231.824219 "/>
<path style=" stroke:none;fill-rule:nonzero;fill:rgb(33.72549%,33.72549%,33.72549%);fill-opacity:1;" d="M 209.847656 222.316406 C 205.589844 222.992188 202.058594 224.167969 198.101562 226.21875 C 196.925781 226.820312 195.898438 227.34375 195.820312 227.394531 C 195.722656 227.445312 195.621094 226.667969 195.546875 225.695312 C 195.472656 224.292969 195.347656 223.816406 194.894531 223.367188 C 194.34375 222.839844 194.144531 222.816406 190.210938 222.816406 C 186.253906 222.816406 186.078125 222.839844 185.527344 223.390625 L 184.953125 223.96875 L 184.878906 255.792969 C 184.828125 279.414062 184.902344 287.796875 185.101562 288.324219 C 185.605469 289.523438 186.429688 289.75 190.1875 289.75 C 193.867188 289.75 194.546875 289.574219 195.171875 288.496094 C 195.570312 287.847656 195.597656 285.59375 195.597656 261.800781 L 195.597656 235.777344 L 197.675781 234.902344 C 204.914062 231.75 210.273438 230.699219 215.480469 231.449219 C 220.542969 232.175781 223.222656 234.625 224.722656 239.90625 C 225.25 241.808594 225.25 242.15625 225.324219 264.726562 C 225.375 280.941406 225.5 287.824219 225.699219 288.324219 C 226.175781 289.523438 227.003906 289.75 230.785156 289.75 C 234.566406 289.75 235.390625 289.523438 235.894531 288.296875 C 236.117188 287.773438 236.167969 281.96875 236.09375 264.578125 C 235.992188 239.53125 236.042969 240.230469 234.515625 235.402344 C 233.414062 231.898438 232.0625 229.570312 229.78125 227.296875 C 227.429688 224.917969 224.921875 223.566406 221.390625 222.691406 C 218.585938 221.992188 212.878906 221.816406 209.847656 222.316406 Z M 209.847656 222.316406 "/>
<path style=" stroke:none;fill-rule:nonzero;fill:rgb(33.72549%,33.72549%,33.72549%);fill-opacity:1;" d="M 261.488281 223.042969 C 260.160156 223.765625 260.238281 222.242188 260.210938 256.171875 C 260.210938 290.523438 260.136719 288.796875 261.589844 289.449219 C 262.464844 289.847656 268.726562 289.847656 269.601562 289.449219 C 271.054688 288.796875 270.980469 290.523438 270.980469 256.21875 C 270.980469 221.914062 271.054688 223.640625 269.601562 222.992188 C 268.675781 222.566406 262.289062 222.589844 261.488281 223.042969 Z M 261.488281 223.042969 "/>
</g>
</svg>
