<?xml version="1.0" encoding="utf-8"?>
<!-- Generator: Adobe Illustrator 21.0.0, SVG Export Plug-In . SVG Version: 6.00 Build 0)  -->
<svg version="1.1" id="Layer_1" xmlns="http://www.w3.org/2000/svg" xmlns:xlink="http://www.w3.org/1999/xlink" x="0px" y="0px"
	 viewBox="0 0 1921 621.1" style="enable-background:new 0 0 1921 621.1;" xml:space="preserve">
<style type="text/css">
	.st0{fill:#565656;}
</style>
<g transform="translate(0.000000,630.000000) scale(0.100000,-0.100000)">
	<path class="st0" d="M11945,6291c-68-17-107-48-141-111c-18-34-19-102-22-1977l-2-1943h541c335,0,547,4,559,10
		c10,5,168,305,360,684c189,371,356,691,372,710c95,116,274,159,410,99c52-24,128-89,158-137c14-24,620-1579,844-2169l22-57
		l688,1912c379,1052,702,1949,719,1992c53,139,146,208,282,210c122,1,219-63,270-179c13-27,267-722,566-1544
		c299-821,551-1503,560-1515c16-19,29-21,141-25c67-1,304,0,526,4l402,7l-2,1942c-3,1874-4,1942-22,1976c-26,49-45,69-91,94l-40,21
		l-3535,2C13566,6297,11962,6295,11945,6291z"/>
	<path class="st0" d="M16051,2942c-521-1446-692-1910-716-1944c-140-193-471-178-590,26c-17,29-706,1799-864,2220
		c-8,19-69-98-525-999c-86-170-109-208-159-257c-73-72-145-113-243-138c-72-19-111-20-626-20h-548v-771c0-549,3-783,12-816
		c14-59,78-127,133-142c57-16,7073-16,7130,0c55,15,119,83,133,142c9,33,12,267,12,816v771h-538c-593,0-599,1-716,63
		c-80,42-167,132-205,210c-17,34-245,652-507,1372c-262,721-481,1323-488,1338C16736,4839,16679,4686,16051,2942z"/>
	<path class="st0" d="M9675,4725l-25-24v-235c0-234,0-235,24-263l24-28l155-3c173-4,205,4,226,56c9,20,11,95,9,251l-3,223l-28,24
		c-27,23-33,24-193,24C9702,4750,9699,4750,9675,4725z"/>
	<path class="st0" d="M3985,3770c-172-27-385-106-526-196l-37-23l-4,70c-3,55-8,74-26,92c-22,21-30,22-187,22c-158,0-165-1-187-23
		l-23-23V2399V1108l28-24c27-23,34-24,182-24s155,1,182,24l28,24l3,1055l2,1055l123,55c202,91,302,119,441,125c140,5,208-7,265-48
		c53-39,89-94,115-178c20-65,20-90,26-1065l5-999l28-24c27-23,34-24,182-24s155,1,182,24l28,24l3,944c2,958,1,1000-34,1195l-6,31
		l123,40c180,59,306,82,441,82c134,0,200-16,274-66c54-37,79-66,114-134c56-109,54-68,60-1110c3-531,9-973,14-983
		c18-37,59-47,201-47c149,0,182,9,203,55c16,34,17,1818,2,1945c-40,325-162,528-381,633c-135,65-220,82-409,81
		c-231,0-428-43-691-147l-106-43l-49,44c-113,100-229,142-409,147C4099,3777,4018,3775,3985,3770z"/>
	<path class="st0" d="M1115,3754c-502-77-804-418-865-976c-13-126-13-630,0-756c61-562,364-901,872-976c185-28,367-18,546,29
		c390,103,631,387,719,846c15,80,18,150,18,479s-3,399-18,479c-88,459-329,743-719,846C1492,3771,1293,3782,1115,3754z M1509,3375
		c230-54,384-229,446-505c23-98,33-678,15-830c-39-338-201-553-462-615c-153-36-391-12-511,52c-71,38-186,155-224,228
		c-41,78-78,207-92,320c-14,114-14,633-1,745c25,205,87,349,194,455c124,123,235,164,446,164C1398,3390,1469,3384,1509,3375z"/>
	<path class="st0" d="M7879,3755c-170-27-311-74-469-156c-47-24-88-45-91-47c-4-2-8,29-11,68c-3,56-8,75-26,93c-22,21-30,22-187,22
		c-158,0-165-1-187-23l-23-23l-3-1272c-2-944,1-1279,9-1300c20-48,53-57,203-57c147,0,174,7,199,50c16,26,17,116,17,1067v1040l83,35
		c289,126,503,168,711,138c202-29,309-127,369-338c21-76,21-90,24-992c2-648,7-923,15-943c19-48,52-57,203-57s184,9,204,58
		c9,21,11,253,8,948c-4,1001-2,973-63,1166c-44,140-98,233-189,324c-94,95-194,149-335,184C8228,3768,8000,3775,7879,3755z"/>
	<path class="st0" d="M9701,3726c-53-29-50,32-51-1324c0-1373-3-1304,55-1330c35-16,285-16,320,0c58,26,55-43,55,1328
		s3,1302-55,1328C9988,3745,9733,3744,9701,3726z"/>
</g>
</svg>
