<?xml version="1.0" encoding="utf-8"?>
<!-- Generator: Adobe Illustrator 21.0.0, SVG Export Plug-In . SVG Version: 6.00 Build 0)  -->
<svg version="1.1" id="Layer_1" xmlns="http://www.w3.org/2000/svg" xmlns:xlink="http://www.w3.org/1999/xlink" x="0px" y="0px"
	 viewBox="0 0 2138 854.5" style="enable-background:new 0 0 2138 854.5;" xml:space="preserve">
<style type="text/css">
	.st0{fill:#565656;}
</style>
<g transform="translate(0.000000,905.000000) scale(0.100000,-0.100000)">
	<path class="st0" d="M245,9026c-107-34-168-87-214-186l-26-55V4770V755l33-67c37-76,82-120,162-157l55-26h10425
		c10057,0,10427,1,10477,18c66,23,146,94,181,161l27,51v4035v4035l-27,52c-37,70-89,120-157,152l-56,26l-10420,2
		C2307,9038,277,9036,245,9026z M21062,8789c26-7,43-19,53-39c13-26,15-486,15-3984V812l-26-31l-26-31H10689H299l-24,25l-25,24v3969
		c0,3967,0,3969,20,3995c11,14,30,28,43,30C365,8803,21026,8800,21062,8789z"/>
	<path class="st0" d="M17404,7611c-31-14-47-30-63-64c-22-44-22-52-19-394c4-471-17-443,333-443c256,0,271,4,306,72
		c18,35,19,63,19,391c0,351,0,354-23,388c-42,63-66,69-302,69C17472,7630,17440,7627,17404,7611z"/>
	<path class="st0" d="M10441,7004c-84-30-154-88-198-164c-11-19-301-815-643-1768c-345-957-627-1727-631-1720s-158,407-343,888
		s-350,902-366,936c-123,253-473,307-670,104c-50-51-86-117-374-683l-318-627h-288h-288l-5,358c-5,392-17,506-76,741
		c-165,657-586,1093-1201,1245c-188,46-307,59-545,59c-245,1-377-14-569-62c-753-191-1192-796-1256-1733c-13-185-13-871,0-1056
		c64-936,504-1543,1256-1733c192-48,324-63,569-62c238,0,357,13,545,59c687,169,1131,696,1248,1480l18,119l354,5c332,6,359,7,422,28
		c96,32,207,110,262,183c25,33,152,270,282,525c130,256,240,462,244,457c4-4,168-426,365-938c196-511,371-951,387-977
		c41-65,99-115,177-152c62-29,73-31,181-31s119,2,182,32c81,38,145,96,182,163c15,28,293,787,617,1688c324,900,591,1643,594,1651
		s7,12,10,10c2-3,189-515,416-1139c226-624,423-1159,437-1188c59-122,179-230,316-283c60-23,65-24,484-27l422-3v-732v-733l23-44
		c16-33,34-51,67-67c42-22,56-23,270-23c253,0,285,7,331,71l24,34l3,1782l2,1783l88,44c269,135,577,237,815,271
		c192,27,446,14,597-31c138-41,278-142,356-258c58-86,104-215,140-396c16-77,18-226,23-1635l6-1550l23-37c14-22,40-45,67-58
		c42-20,56-21,283-18l239,3l36,28c73,56,68-85,64,1645c-3,1707-1,1631-64,1897c-140,593-476,927-1032,1027c-139,24-468,30-621,10
		c-283-37-512-110-803-256c-111-55-205-102-209-104c-5-2-8,42-8,98c0,128-19,172-86,201c-41,18-63,20-288,17c-278-3-281-4-323-88
		l-23-44V5099V3973l-172-6c-290-11-524-9-535,6c-5,6-240,649-522,1427c-384,1060-521,1428-548,1467c-68,102-168,153-298,152
		C10519,7019,10466,7012,10441,7004z M4761,5720c196-40,340-113,470-237c202-194,320-473,359-852c13-134,13-1028,0-1162
		c-21-207-80-430-151-571c-103-206-275-372-468-453c-356-150-845-112-1124,89c-270,193-419,518-457,1000c-13,167-13,866,0,1032
		c32,400,134,678,323,880c157,168,351,260,619,294C4440,5753,4643,5744,4761,5720z"/>
	<path class="st0" d="M17412,6013c-18-9-43-30-55-47l-22-31l-3-2013c-2-2232-8-2055,62-2105c29-21,42-22,238-25c188-3,212-1,251,16
		c34,15,49,30,66,64l21,44v1994v1994l-21,44c-36,74-65,82-304,82C17481,6030,17439,6027,17412,6013z"/>
</g>
</svg>
