<?xml version="1.0" encoding="UTF-8"?>
<svg xmlns="http://www.w3.org/2000/svg" xmlns:xlink="http://www.w3.org/1999/xlink" width="177pt" height="182pt" viewBox="0 0 177 182" version="1.1">
<g id="surface1">
<path style=" stroke:none;fill-rule:nonzero;fill:rgb(33.72549%,33.72549%,33.72549%);fill-opacity:1;" d="M 82.800781 0.640625 C 81.515625 0.703125 78.972656 0.9375 77.152344 1.15625 C 51.472656 4.285156 27.910156 18.375 11.585938 40.347656 C 7.691406 45.585938 3.828125 52.074219 1.003906 58.128906 C 0.644531 58.925781 0.359375 59.582031 0.390625 59.582031 C 0.421875 59.582031 1.300781 58.363281 2.371094 56.878906 C 6.984375 50.386719 11.425781 45.179688 17.484375 39.175781 C 30.265625 26.476562 43.71875 18.0625 59.695312 12.792969 C 67.8125 10.117188 76.148438 8.632812 85.15625 8.273438 C 95.1875 7.878906 103.164062 9.476562 112.125 13.667969 C 117.289062 16.078125 123.832031 20.316406 130.441406 25.476562 C 133.175781 27.617188 137.835938 31.480469 142.765625 35.65625 C 153.800781 45.023438 159.6875 49.621094 166.28125 53.96875 C 170.285156 56.609375 175.964844 59.972656 175.964844 59.691406 C 175.964844 59.644531 175.273438 59.066406 174.441406 58.394531 C 168.445312 53.59375 164.945312 50.324219 151.476562 36.984375 C 139.453125 25.070312 137.378906 23.082031 133.503906 19.703125 C 121.355469 9.117188 110.226562 3.328125 98.058594 1.25 C 93.757812 0.515625 88.988281 0.328125 82.800781 0.640625 Z M 82.800781 0.640625 "/>
<path style=" stroke:none;fill-rule:nonzero;fill:rgb(33.72549%,33.72549%,33.72549%);fill-opacity:1;" d="M 85.234375 13.871094 C 73.636719 14.71875 63.117188 19.5625 55.097656 27.773438 C 51.3125 31.636719 48.835938 35.140625 46.542969 39.800781 C 43.71875 45.570312 42.253906 51.167969 41.832031 57.972656 L 41.722656 59.582031 L 56.117188 59.582031 L 58.769531 53.671875 C 62.238281 45.976562 62.363281 45.710938 63.214844 44.851562 C 65.347656 42.679688 68.660156 43.035156 70.292969 45.632812 C 70.542969 46.039062 74.136719 54.65625 78.265625 64.789062 C 83.445312 77.457031 85.816406 83.117188 85.894531 82.929688 C 85.957031 82.773438 89.238281 72 93.160156 58.972656 C 97.101562 45.960938 100.445312 35.046875 100.617188 34.71875 C 100.949219 34.078125 101.921875 33.136719 102.691406 32.746094 C 102.972656 32.605469 103.710938 32.449219 104.324219 32.402344 C 105.90625 32.308594 106.894531 32.652344 107.917969 33.683594 C 108.640625 34.421875 109.1875 35.5 114.746094 47.023438 L 120.789062 59.582031 L 127.382812 59.582031 C 131.007812 59.582031 134.226562 59.535156 134.523438 59.488281 L 135.074219 59.394531 L 134.964844 57.359375 C 134.382812 46.417969 129.660156 35.78125 121.824219 27.789062 C 113.882812 19.691406 103.648438 14.902344 92.222656 13.917969 C 90.476562 13.777344 86.898438 13.746094 85.234375 13.871094 Z M 85.234375 13.871094 "/>
<path style=" stroke:none;fill-rule:nonzero;fill:rgb(33.72549%,33.72549%,33.72549%);fill-opacity:1;" d="M 98.121094 67.683594 C 94.214844 80.648438 90.808594 91.6875 90.554688 92.21875 C 89.363281 94.722656 86.429688 95.847656 84.089844 94.707031 C 83.589844 94.472656 82.914062 93.957031 82.519531 93.519531 C 81.796875 92.71875 81.890625 92.9375 68.847656 60.960938 L 66.320312 54.765625 L 66.066406 55.25 C 65.929688 55.53125 65.082031 57.359375 64.199219 59.347656 C 63.304688 61.316406 62.394531 63.226562 62.160156 63.570312 C 61.613281 64.382812 60.527344 65.367188 59.632812 65.882812 C 58.175781 66.730469 57.71875 66.773438 49.636719 66.773438 L 42.210938 66.773438 L 42.304688 67.355469 C 43.199219 72.609375 44.34375 76.160156 46.621094 80.769531 C 48.960938 85.527344 51.738281 89.402344 55.488281 93.128906 C 63.226562 100.835938 73.164062 105.496094 84.042969 106.515625 C 86.632812 106.746094 92.878906 106.625 95.125 106.261719 C 107.761719 104.308594 118.386719 97.972656 125.921875 87.917969 C 130.414062 81.945312 133.140625 75.425781 134.585938 67.277344 L 134.683594 66.773438 L 127.179688 66.773438 C 120.726562 66.773438 119.550781 66.746094 118.8125 66.527344 C 117.507812 66.136719 116.800781 65.726562 115.75 64.710938 C 114.652344 63.664062 115.199219 64.699219 109.21875 52.308594 C 107.054688 47.835938 105.28125 44.164062 105.265625 44.148438 C 105.25 44.128906 102.046875 54.71875 98.121094 67.683594 Z M 98.121094 67.683594 "/>
<path style=" stroke:none;fill-rule:nonzero;fill:rgb(33.72549%,33.72549%,33.72549%);fill-opacity:1;" d="M 1.035156 60.941406 C 1.300781 61.175781 2.527344 62.253906 3.78125 63.335938 C 8.710938 67.589844 11.726562 70.464844 24.488281 83.117188 C 31.785156 90.359375 38.816406 97.222656 40.105469 98.382812 C 48.125 105.558594 54.578125 110.109375 61.582031 113.550781 C 67.453125 116.429688 72.316406 118.007812 78.40625 118.992188 C 82.707031 119.695312 85.125 119.851562 90.289062 119.742188 C 112.015625 119.273438 132.25 111.421875 149.359375 96.832031 C 156.28125 90.921875 162.636719 83.726562 167.910156 75.847656 C 169.8125 73 172.589844 68.324219 173.765625 65.992188 C 174.789062 63.992188 176.449219 60.441406 176.308594 60.597656 C 176.214844 60.675781 175.257812 62.007812 174.175781 63.539062 C 160.390625 82.851562 142.546875 97.503906 123.535156 105.089844 C 112.8125 109.359375 102.957031 111.5 91.828125 111.988281 C 86.617188 112.203125 83.492188 112.046875 79.113281 111.332031 C 68.894531 109.65625 59.507812 105.214844 48.113281 96.675781 C 44.3125 93.84375 40.890625 91.046875 32.414062 83.902344 C 26.214844 78.660156 20.875 74.3125 17.425781 71.6875 C 12.289062 67.761719 5.320312 63.085938 1.492188 61.003906 L 0.546875 60.488281 Z M 1.035156 60.941406 "/>
<path style=" stroke:none;fill-rule:nonzero;fill:rgb(33.72549%,33.72549%,33.72549%);fill-opacity:1;" d="M 163.484375 123.777344 L 163.09375 124.152344 L 163.09375 127.828125 C 163.09375 131.488281 163.09375 131.503906 163.46875 131.941406 L 163.847656 132.378906 L 166.28125 132.425781 C 168.996094 132.488281 169.496094 132.363281 169.828125 131.550781 C 169.96875 131.238281 170 130.066406 169.96875 127.625 L 169.921875 124.136719 L 169.484375 123.761719 C 169.058594 123.402344 168.964844 123.386719 166.453125 123.386719 C 163.910156 123.386719 163.859375 123.386719 163.484375 123.777344 Z M 163.484375 123.777344 "/>
<path style=" stroke:none;fill-rule:nonzero;fill:rgb(33.72549%,33.72549%,33.72549%);fill-opacity:1;" d="M 66.632812 138.714844 C 63.933594 139.136719 60.589844 140.371094 58.378906 141.777344 L 57.796875 142.140625 L 57.734375 141.042969 C 57.6875 140.183594 57.609375 139.886719 57.324219 139.605469 C 56.980469 139.273438 56.855469 139.261719 54.390625 139.261719 C 51.910156 139.261719 51.800781 139.273438 51.453125 139.617188 L 51.09375 139.980469 L 51.09375 180.34375 L 51.535156 180.71875 C 51.957031 181.078125 52.070312 181.09375 54.390625 181.09375 C 56.714844 181.09375 56.824219 181.078125 57.246094 180.71875 L 57.6875 180.34375 L 57.734375 163.84375 L 57.765625 147.347656 L 59.695312 146.484375 C 62.867188 145.0625 64.4375 144.625 66.617188 144.53125 C 68.816406 144.453125 69.882812 144.640625 70.777344 145.28125 C 71.609375 145.890625 72.175781 146.75 72.582031 148.0625 C 72.894531 149.082031 72.894531 149.472656 72.992188 164.71875 L 73.070312 180.34375 L 73.507812 180.71875 C 73.933594 181.078125 74.042969 181.09375 76.367188 181.09375 C 78.6875 181.09375 78.800781 181.078125 79.222656 180.71875 L 79.664062 180.34375 L 79.710938 165.578125 C 79.742188 150.597656 79.726562 149.941406 79.175781 146.890625 L 79.082031 146.40625 L 81.011719 145.78125 C 83.839844 144.859375 85.816406 144.5 87.933594 144.5 C 90.039062 144.5 91.074219 144.75 92.234375 145.53125 C 93.082031 146.109375 93.476562 146.5625 94.023438 147.625 C 94.90625 149.332031 94.871094 148.691406 94.96875 164.984375 C 95.015625 173.289062 95.109375 180.203125 95.1875 180.359375 C 95.46875 180.9375 96.113281 181.09375 98.339844 181.09375 C 100.683594 181.09375 101.199219 180.953125 101.53125 180.230469 C 101.777344 179.703125 101.796875 151.800781 101.5625 149.816406 C 100.933594 144.734375 99.015625 141.558594 95.578125 139.917969 C 93.460938 138.902344 92.125 138.636719 89.160156 138.648438 C 85.535156 138.648438 82.441406 139.324219 78.3125 140.949219 L 76.648438 141.621094 L 75.878906 140.933594 C 74.105469 139.371094 72.285156 138.714844 69.457031 138.636719 C 68.421875 138.601562 67.152344 138.636719 66.632812 138.714844 Z M 66.632812 138.714844 "/>
<path style=" stroke:none;fill-rule:nonzero;fill:rgb(33.72549%,33.72549%,33.72549%);fill-opacity:1;" d="M 17.816406 138.960938 C 9.933594 140.167969 5.195312 145.5 4.238281 154.226562 C 4.035156 156.195312 4.035156 164.078125 4.238281 166.050781 C 5.195312 174.839844 9.953125 180.140625 17.925781 181.3125 C 20.832031 181.75 23.6875 181.59375 26.496094 180.859375 C 32.617188 179.246094 36.402344 174.808594 37.78125 167.628906 C 38.015625 166.375 38.066406 165.28125 38.066406 160.136719 C 38.066406 154.992188 38.015625 153.898438 37.78125 152.644531 C 36.402344 145.46875 32.617188 141.027344 26.496094 139.417969 C 23.734375 138.695312 20.609375 138.523438 17.816406 138.960938 Z M 24 144.890625 C 27.613281 145.734375 30.027344 148.472656 31 152.789062 C 31.363281 154.320312 31.519531 163.390625 31.238281 165.765625 C 30.625 171.050781 28.082031 174.417969 23.984375 175.386719 C 21.585938 175.945312 17.847656 175.574219 15.964844 174.574219 C 14.847656 173.976562 13.042969 172.148438 12.449219 171.007812 C 11.804688 169.789062 11.222656 167.769531 11.003906 166 C 10.785156 164.21875 10.785156 156.101562 10.988281 154.351562 C 11.378906 151.144531 12.355469 148.894531 14.035156 147.234375 C 15.980469 145.3125 17.722656 144.671875 21.035156 144.671875 C 22.257812 144.65625 23.375 144.75 24 144.890625 Z M 24 144.890625 "/>
<path style=" stroke:none;fill-rule:nonzero;fill:rgb(33.72549%,33.72549%,33.72549%);fill-opacity:1;" d="M 131.527344 138.949219 C 128.859375 139.371094 126.644531 140.105469 124.164062 141.386719 C 123.425781 141.761719 122.785156 142.089844 122.734375 142.121094 C 122.671875 142.152344 122.609375 141.667969 122.5625 141.058594 C 122.515625 140.183594 122.4375 139.886719 122.152344 139.605469 C 121.808594 139.273438 121.683594 139.261719 119.21875 139.261719 C 116.738281 139.261719 116.628906 139.273438 116.28125 139.617188 L 115.921875 139.980469 L 115.875 159.871094 C 115.84375 174.632812 115.890625 179.871094 116.015625 180.203125 C 116.332031 180.953125 116.847656 181.09375 119.203125 181.09375 C 121.511719 181.09375 121.9375 180.984375 122.328125 180.308594 C 122.578125 179.90625 122.59375 178.496094 122.59375 163.625 L 122.59375 147.359375 L 123.898438 146.8125 C 128.433594 144.84375 131.792969 144.1875 135.058594 144.65625 C 138.230469 145.109375 139.910156 146.640625 140.847656 149.941406 C 141.179688 151.128906 141.179688 151.347656 141.226562 165.453125 C 141.257812 175.589844 141.335938 179.890625 141.460938 180.203125 C 141.761719 180.953125 142.28125 181.09375 144.648438 181.09375 C 147.019531 181.09375 147.535156 180.953125 147.851562 180.183594 C 147.992188 179.859375 148.023438 176.230469 147.976562 165.359375 C 147.914062 149.707031 147.945312 150.144531 146.988281 147.125 C 146.296875 144.9375 145.449219 143.480469 144.019531 142.058594 C 142.546875 140.574219 140.972656 139.730469 138.761719 139.183594 C 137.003906 138.746094 133.425781 138.636719 131.527344 138.949219 Z M 131.527344 138.949219 "/>
<path style=" stroke:none;fill-rule:nonzero;fill:rgb(33.72549%,33.72549%,33.72549%);fill-opacity:1;" d="M 163.894531 139.402344 C 163.0625 139.851562 163.109375 138.902344 163.09375 160.109375 C 163.09375 181.578125 163.046875 180.496094 163.957031 180.90625 C 164.503906 181.15625 168.429688 181.15625 168.976562 180.90625 C 169.890625 180.496094 169.84375 181.578125 169.84375 160.136719 C 169.84375 138.695312 169.890625 139.773438 168.976562 139.371094 C 168.398438 139.105469 164.394531 139.117188 163.894531 139.402344 Z M 163.894531 139.402344 "/>
</g>
</svg>
