<?xml version="1.0" encoding="UTF-8"?>
<svg xmlns="http://www.w3.org/2000/svg" xmlns:xlink="http://www.w3.org/1999/xlink" width="88pt" height="90pt" viewBox="0 0 88 90" version="1.1">
<g id="surface1">
<path style=" stroke:none;fill-rule:nonzero;fill:rgb(33.72549%,33.72549%,33.72549%);fill-opacity:1;" d="M 41.167969 0.316406 C 40.527344 0.347656 39.261719 0.464844 38.359375 0.570312 C 25.589844 2.117188 13.875 9.085938 5.761719 19.953125 C 3.824219 22.542969 1.902344 25.75 0.5 28.746094 C 0.320312 29.140625 0.179688 29.464844 0.195312 29.464844 C 0.210938 29.464844 0.648438 28.859375 1.179688 28.125 C 3.472656 24.917969 5.679688 22.339844 8.695312 19.371094 C 15.046875 13.09375 21.734375 8.929688 29.679688 6.328125 C 33.714844 5.003906 37.859375 4.269531 42.339844 4.089844 C 47.324219 3.898438 51.289062 4.6875 55.746094 6.757812 C 58.3125 7.949219 61.566406 10.046875 64.851562 12.597656 C 66.210938 13.65625 68.527344 15.566406 70.980469 17.632812 C 76.464844 22.261719 79.390625 24.539062 82.671875 26.6875 C 84.660156 27.996094 87.484375 29.65625 87.484375 29.519531 C 87.484375 29.496094 87.140625 29.210938 86.730469 28.875 C 83.746094 26.503906 82.007812 24.886719 75.3125 18.289062 C 69.332031 12.394531 68.300781 11.414062 66.375 9.742188 C 60.332031 4.507812 54.800781 1.648438 48.753906 0.617188 C 46.613281 0.253906 44.242188 0.164062 41.167969 0.316406 Z M 41.167969 0.316406 "/>
<path style=" stroke:none;fill-rule:nonzero;fill:rgb(33.72549%,33.72549%,33.72549%);fill-opacity:1;" d="M 42.378906 6.859375 C 36.609375 7.277344 31.378906 9.675781 27.394531 13.734375 C 25.511719 15.644531 24.277344 17.375 23.140625 19.679688 C 21.734375 22.535156 21.007812 25.304688 20.796875 28.667969 L 20.742188 29.464844 L 27.902344 29.464844 L 29.21875 26.542969 C 30.945312 22.734375 31.003906 22.605469 31.429688 22.179688 C 32.488281 21.105469 34.136719 21.28125 34.945312 22.566406 C 35.074219 22.765625 36.859375 27.027344 38.910156 32.039062 C 41.488281 38.300781 42.664062 41.101562 42.703125 41.007812 C 42.734375 40.933594 44.367188 35.605469 46.316406 29.160156 C 48.277344 22.726562 49.9375 17.332031 50.023438 17.167969 C 50.1875 16.851562 50.671875 16.386719 51.054688 16.195312 C 51.195312 16.125 51.5625 16.046875 51.867188 16.023438 C 52.65625 15.976562 53.144531 16.148438 53.652344 16.65625 C 54.011719 17.023438 54.285156 17.554688 57.046875 23.253906 L 60.054688 29.464844 L 63.332031 29.464844 C 65.132812 29.464844 66.734375 29.441406 66.882812 29.417969 L 67.15625 29.371094 L 67.101562 28.367188 C 66.8125 22.953125 64.460938 17.695312 60.570312 13.742188 C 56.617188 9.738281 51.53125 7.371094 45.851562 6.882812 C 44.984375 6.8125 43.203125 6.796875 42.378906 6.859375 Z M 42.378906 6.859375 "/>
<path style=" stroke:none;fill-rule:nonzero;fill:rgb(33.72549%,33.72549%,33.72549%);fill-opacity:1;" d="M 48.785156 33.46875 C 46.839844 39.878906 45.148438 45.339844 45.023438 45.601562 C 44.429688 46.839844 42.96875 47.398438 41.808594 46.832031 C 41.558594 46.71875 41.222656 46.460938 41.027344 46.246094 C 40.667969 45.851562 40.714844 45.960938 34.230469 30.144531 L 32.972656 27.082031 L 32.847656 27.320312 C 32.777344 27.460938 32.355469 28.367188 31.917969 29.347656 C 31.472656 30.320312 31.023438 31.265625 30.90625 31.433594 C 30.632812 31.835938 30.09375 32.324219 29.648438 32.578125 C 28.921875 32.996094 28.695312 33.019531 24.675781 33.019531 L 20.984375 33.019531 L 21.03125 33.308594 C 21.476562 35.90625 22.046875 37.660156 23.179688 39.941406 C 24.339844 42.292969 25.722656 44.210938 27.585938 46.050781 C 31.433594 49.863281 36.375 52.167969 41.78125 52.671875 C 43.070312 52.789062 46.175781 52.726562 47.292969 52.546875 C 53.574219 51.582031 58.859375 48.449219 62.605469 43.476562 C 64.835938 40.523438 66.195312 37.296875 66.914062 33.269531 L 66.960938 33.019531 L 63.230469 33.019531 C 60.023438 33.019531 59.4375 33.007812 59.070312 32.898438 C 58.421875 32.703125 58.070312 32.503906 57.546875 32 C 57.003906 31.484375 57.273438 31.992188 54.300781 25.867188 C 53.226562 23.65625 52.34375 21.839844 52.335938 21.832031 C 52.328125 21.824219 50.734375 27.058594 48.785156 33.46875 Z M 48.785156 33.46875 "/>
<path style=" stroke:none;fill-rule:nonzero;fill:rgb(33.72549%,33.72549%,33.72549%);fill-opacity:1;" d="M 0.515625 30.136719 C 0.648438 30.253906 1.257812 30.785156 1.878906 31.320312 C 4.332031 33.421875 5.828125 34.847656 12.175781 41.101562 C 15.804688 44.683594 19.300781 48.078125 19.941406 48.648438 C 23.925781 52.199219 27.136719 54.449219 30.617188 56.152344 C 33.535156 57.574219 35.953125 58.355469 38.980469 58.84375 C 41.121094 59.191406 42.324219 59.269531 44.890625 59.214844 C 55.691406 58.980469 65.75 55.097656 74.257812 47.882812 C 77.699219 44.960938 80.859375 41.402344 83.480469 37.507812 C 84.425781 36.097656 85.808594 33.789062 86.394531 32.632812 C 86.898438 31.644531 87.726562 29.890625 87.65625 29.964844 C 87.609375 30.003906 87.132812 30.664062 86.597656 31.421875 C 79.742188 40.96875 70.871094 48.214844 61.417969 51.96875 C 56.089844 54.078125 51.1875 55.136719 45.65625 55.378906 C 43.0625 55.484375 41.511719 55.410156 39.332031 55.054688 C 34.253906 54.226562 29.585938 52.03125 23.921875 47.808594 C 22.03125 46.40625 20.332031 45.023438 16.113281 41.488281 C 13.03125 38.898438 10.378906 36.75 8.664062 35.449219 C 6.109375 33.507812 2.644531 31.195312 0.742188 30.167969 L 0.273438 29.910156 Z M 0.515625 30.136719 "/>
<path style=" stroke:none;fill-rule:nonzero;fill:rgb(33.72549%,33.72549%,33.72549%);fill-opacity:1;" d="M 81.28125 61.210938 L 81.085938 61.394531 L 81.085938 63.210938 C 81.085938 65.019531 81.085938 65.03125 81.273438 65.246094 L 81.460938 65.460938 L 82.671875 65.484375 C 84.019531 65.515625 84.269531 65.453125 84.433594 65.050781 C 84.503906 64.898438 84.519531 64.316406 84.503906 63.109375 L 84.480469 61.386719 L 84.261719 61.199219 C 84.050781 61.023438 84.003906 61.015625 82.753906 61.015625 C 81.492188 61.015625 81.46875 61.015625 81.28125 61.210938 Z M 81.28125 61.210938 "/>
<path style=" stroke:none;fill-rule:nonzero;fill:rgb(33.72549%,33.72549%,33.72549%);fill-opacity:1;" d="M 33.128906 68.59375 C 31.789062 68.804688 30.125 69.414062 29.023438 70.109375 L 28.734375 70.289062 L 28.703125 69.746094 C 28.679688 69.320312 28.640625 69.175781 28.5 69.035156 C 28.328125 68.871094 28.265625 68.863281 27.042969 68.863281 C 25.808594 68.863281 25.753906 68.871094 25.582031 69.042969 L 25.402344 69.222656 L 25.402344 89.179688 L 25.621094 89.367188 C 25.832031 89.542969 25.886719 89.550781 27.042969 89.550781 C 28.195312 89.550781 28.25 89.542969 28.460938 89.367188 L 28.679688 89.179688 L 28.703125 81.019531 L 28.71875 72.863281 L 29.679688 72.4375 C 31.257812 71.734375 32.035156 71.515625 33.121094 71.472656 C 34.214844 71.433594 34.742188 71.523438 35.1875 71.84375 C 35.601562 72.144531 35.882812 72.570312 36.085938 73.21875 C 36.242188 73.722656 36.242188 73.914062 36.289062 81.453125 L 36.328125 89.179688 L 36.546875 89.367188 C 36.757812 89.542969 36.8125 89.550781 37.96875 89.550781 C 39.121094 89.550781 39.175781 89.542969 39.386719 89.367188 L 39.605469 89.179688 L 39.628906 81.878906 C 39.644531 74.472656 39.636719 74.148438 39.363281 72.640625 L 39.316406 72.398438 L 40.277344 72.089844 C 41.683594 71.632812 42.664062 71.457031 43.71875 71.457031 C 44.765625 71.457031 45.28125 71.578125 45.855469 71.964844 C 46.277344 72.253906 46.472656 72.476562 46.746094 73.003906 C 47.183594 73.84375 47.167969 73.527344 47.214844 81.585938 C 47.238281 85.691406 47.285156 89.109375 47.324219 89.1875 C 47.464844 89.472656 47.785156 89.550781 48.894531 89.550781 C 50.058594 89.550781 50.3125 89.480469 50.476562 89.125 C 50.601562 88.863281 50.609375 75.066406 50.492188 74.085938 C 50.179688 71.570312 49.230469 70.003906 47.519531 69.191406 C 46.464844 68.6875 45.800781 68.554688 44.328125 68.5625 C 42.527344 68.5625 40.988281 68.894531 38.933594 69.699219 L 38.109375 70.03125 L 37.726562 69.691406 C 36.84375 68.917969 35.9375 68.59375 34.535156 68.554688 C 34.019531 68.539062 33.386719 68.554688 33.128906 68.59375 Z M 33.128906 68.59375 "/>
<path style=" stroke:none;fill-rule:nonzero;fill:rgb(33.72549%,33.72549%,33.72549%);fill-opacity:1;" d="M 8.859375 68.71875 C 4.941406 69.3125 2.582031 71.949219 2.105469 76.265625 C 2.007812 77.238281 2.007812 81.136719 2.105469 82.113281 C 2.582031 86.457031 4.949219 89.078125 8.914062 89.660156 C 10.355469 89.875 11.777344 89.800781 13.171875 89.4375 C 16.21875 88.640625 18.097656 86.441406 18.785156 82.894531 C 18.902344 82.273438 18.925781 81.734375 18.925781 79.1875 C 18.925781 76.644531 18.902344 76.105469 18.785156 75.484375 C 18.097656 71.933594 16.21875 69.738281 13.171875 68.941406 C 11.800781 68.585938 10.246094 68.5 8.859375 68.71875 Z M 11.933594 71.648438 C 13.726562 72.066406 14.929688 73.421875 15.414062 75.554688 C 15.59375 76.3125 15.671875 80.796875 15.53125 81.972656 C 15.226562 84.585938 13.960938 86.25 11.925781 86.730469 C 10.730469 87.007812 8.875 86.820312 7.9375 86.328125 C 7.382812 86.03125 6.484375 85.128906 6.1875 84.5625 C 5.867188 83.960938 5.578125 82.960938 5.46875 82.089844 C 5.363281 81.207031 5.363281 77.195312 5.464844 76.328125 C 5.65625 74.742188 6.140625 73.628906 6.976562 72.808594 C 7.945312 71.859375 8.808594 71.539062 10.457031 71.539062 C 11.066406 71.53125 11.621094 71.578125 11.933594 71.648438 Z M 11.933594 71.648438 "/>
<path style=" stroke:none;fill-rule:nonzero;fill:rgb(33.72549%,33.72549%,33.72549%);fill-opacity:1;" d="M 65.390625 68.710938 C 64.066406 68.917969 62.964844 69.28125 61.730469 69.917969 C 61.363281 70.101562 61.042969 70.265625 61.019531 70.28125 C 60.988281 70.296875 60.957031 70.054688 60.933594 69.753906 C 60.914062 69.320312 60.875 69.175781 60.730469 69.035156 C 60.558594 68.871094 60.5 68.863281 59.273438 68.863281 C 58.039062 68.863281 57.984375 68.871094 57.8125 69.042969 L 57.632812 69.222656 L 57.609375 79.058594 C 57.59375 86.355469 57.617188 88.949219 57.679688 89.109375 C 57.835938 89.480469 58.09375 89.550781 59.265625 89.550781 C 60.410156 89.550781 60.625 89.496094 60.820312 89.164062 C 60.941406 88.964844 60.949219 88.265625 60.949219 80.914062 L 60.949219 72.871094 L 61.597656 72.601562 C 63.855469 71.625 65.523438 71.300781 67.148438 71.53125 C 68.722656 71.757812 69.558594 72.515625 70.027344 74.148438 C 70.191406 74.734375 70.191406 74.84375 70.214844 81.816406 C 70.230469 86.828125 70.269531 88.957031 70.332031 89.109375 C 70.480469 89.480469 70.738281 89.550781 71.917969 89.550781 C 73.09375 89.550781 73.351562 89.480469 73.507812 89.101562 C 73.578125 88.941406 73.59375 87.148438 73.570312 81.773438 C 73.539062 74.03125 73.554688 74.246094 73.078125 72.753906 C 72.734375 71.671875 72.3125 70.953125 71.601562 70.25 C 70.871094 69.515625 70.089844 69.097656 68.988281 68.828125 C 68.113281 68.609375 66.335938 68.554688 65.390625 68.710938 Z M 65.390625 68.710938 "/>
<path style=" stroke:none;fill-rule:nonzero;fill:rgb(33.72549%,33.72549%,33.72549%);fill-opacity:1;" d="M 81.484375 68.933594 C 81.070312 69.160156 81.09375 68.6875 81.085938 79.175781 C 81.085938 89.789062 81.0625 89.257812 81.515625 89.457031 C 81.789062 89.582031 83.738281 89.582031 84.011719 89.457031 C 84.464844 89.257812 84.441406 89.789062 84.441406 79.1875 C 84.441406 68.585938 84.464844 69.121094 84.011719 68.917969 C 83.722656 68.789062 81.734375 68.796875 81.484375 68.933594 Z M 81.484375 68.933594 "/>
</g>
</svg>
