<?xml version="1.0" encoding="utf-8"?>
<!-- Generator: Adobe Illustrator 21.0.0, SVG Export Plug-In . SVG Version: 6.00 Build 0)  -->
<svg version="1.1" id="Layer_1" xmlns="http://www.w3.org/2000/svg" xmlns:xlink="http://www.w3.org/1999/xlink" x="0px" y="0px"
	 viewBox="0 0 1886 778" style="enable-background:new 0 0 1886 778;" xml:space="preserve">
<style type="text/css">
	.st0{fill:#565656;}
</style>
<g transform="translate(0.000000,778.000000) scale(0.100000,-0.100000)">
	<path class="st0" d="M14730,7764c-819-59-1560-346-2188-846c-163-130-470-437-598-598c-473-594-752-1274-836-2035
		c-17-155-17-643,0-790c16-139,48-337,68-426l16-69h577c447,0,581,3,592,13c9,6,179,325,378,707c200,382,377,714,393,738
		c62,89,194,152,290,138c103-15,200-89,251-193c13-26,217-531,452-1121c236-589,432-1069,436-1065c4,5,311,861,682,1903
		s684,1919,695,1948c31,80,82,136,159,174c56,28,77,32,137,32c108,0,208-52,263-135c14-21,276-728,583-1570
		c306-842,565-1540,575-1551c16-20,25-20,328-14c172,3,416,9,544,12l231,6l21,112c53,277,65,413,66,746c0,321-6,402-46,650
		c-128,788-517,1540-1087,2108c-626,622-1414,1000-2307,1108C15281,7760,14847,7772,14730,7764z"/>
	<path class="st0" d="M9675,5695l-25-24v-235c0-234,0-235,24-263l24-28l155-3c173-4,205,4,226,56c9,20,11,95,9,251l-3,223l-28,24
		c-27,23-33,24-193,24C9702,5720,9699,5720,9675,5695z"/>
	<path class="st0" d="M15556,3619c-493-1386-688-1923-712-1958c-114-170-329-207-489-86c-19,15-48,47-64,72c-16,24-229,542-472,1151
		s-445,1110-448,1114c-5,5-467-868-577-1090c-56-114-174-212-307-257l-76-25h-540c-298,0-541-2-541-4s22-58,50-124
		c207-505,547-998,936-1357c555-512,1217-848,1931-980c230-43,371-57,629-62c268-6,451,4,674,37c1106,165,2096,809,2697,1755
		c89,139,186,318,252,462c57,126,111,258,111,274c0,6-163,7-488,3c-532-8-543-7-661,48c-79,37-188,142-225,216
		c-15,30-245,653-512,1385s-486,1332-487,1333S15929,4669,15556,3619z"/>
	<path class="st0" d="M3985,4740c-172-27-385-106-526-196l-37-23l-4,70c-3,55-8,74-26,92c-22,21-30,22-187,22c-158,0-165-1-187-23
		l-23-23V3369V2078l28-24c27-23,34-24,182-24s155,1,182,24l28,24l3,1055l2,1055l123,55c202,91,302,119,441,125c140,5,208-7,265-48
		c53-39,89-94,115-178c20-65,20-90,26-1065l5-999l28-24c27-23,34-24,182-24s155,1,182,24l28,24l3,944c2,958,1,1000-34,1195l-6,31
		l123,40c180,59,306,82,441,82c134,0,200-16,274-66c54-37,79-66,114-134c56-109,54-68,60-1110c3-531,9-973,14-983
		c18-37,59-47,201-47c149,0,182,9,203,55c16,34,17,1818,2,1945c-40,325-162,528-381,633c-135,65-220,82-409,81
		c-231,0-428-43-691-147l-106-43l-49,44c-113,100-229,142-409,147C4099,4747,4018,4745,3985,4740z"/>
	<path class="st0" d="M1125,4724c-502-77-804-418-865-976c-13-126-13-630,0-756c61-562,364-901,872-976c185-28,367-18,546,29
		c390,103,631,387,719,846c15,80,18,150,18,479s-3,399-18,479c-88,459-329,743-719,846C1502,4741,1303,4752,1125,4724z M1519,4345
		c230-54,384-229,446-505c23-98,33-678,15-830c-39-338-201-553-462-615c-153-36-391-12-511,52c-71,38-186,155-224,228
		c-41,78-78,207-92,320c-14,114-14,633-1,745c25,205,87,349,194,455c124,123,235,164,446,164C1408,4360,1479,4354,1519,4345z"/>
	<path class="st0" d="M7879,4725c-170-27-311-74-469-156c-47-24-88-45-91-47c-4-2-8,29-11,68c-3,56-8,75-26,93c-22,21-30,22-187,22
		c-158,0-165-1-187-23l-23-23l-3-1272c-2-944,1-1279,9-1300c20-48,53-57,203-57c147,0,174,7,199,50c16,26,17,116,17,1067v1040l83,35
		c289,126,503,168,711,138c202-29,309-127,369-338c21-76,21-90,24-992c2-648,7-923,15-943c19-48,52-57,203-57s184,9,204,58
		c9,21,11,253,8,948c-4,1001-2,973-63,1166c-44,140-98,233-189,324c-94,95-194,149-335,184C8228,4738,8000,4745,7879,4725z"/>
	<path class="st0" d="M9701,4696c-53-29-50,32-51-1324c0-1373-3-1304,55-1330c35-16,285-16,320,0c58,26,55-43,55,1328
		s3,1302-55,1328C9988,4715,9733,4714,9701,4696z"/>
</g>
</svg>
